<?xml version="1.0" encoding="UTF-8"?>
<svg id="Layer_1" xmlns="http://www.w3.org/2000/svg" version="1.1" viewBox="0 0 1920 1080">
  <!-- Generator: Adobe Illustrator 29.2.1, SVG Export Plug-In . SVG Version: 2.1.0 Build 116)  -->
  <defs>
    <style>
      .st0, .st1, .st2, .st3 {
        isolation: isolate;
      }

      .st0, .st2 {
        opacity: .4;
      }

      .st2, .st3 {
        fill: none;
        stroke: blue;
        stroke-miterlimit: 10;
      }

      .st3 {
        font-family: PTSans-Bold, 'PT Sans';
        font-size: 180.2px;
        font-weight: 700;
        letter-spacing: .4em;
      }
    </style>
  </defs>
  <g class="st0">
    <g class="st1">
      <text class="st3" transform="translate(85 130.5) rotate(-180) scale(.9 -1)"><tspan x="0" y="0">R</tspan></text>
    </g>
  </g>
  <path class="st2" d="M81,5.6c4.4-1.1,9.2-1.8,14.2-2.3,5.1-.5,9.5-.7,13.1-.7s9.2.5,13.6,1.6,8.3,2.9,11.8,5.5c3.3,2.6,6.1,6.4,8.2,11.1,2.1,4.7,3.2,10.5,3.2,17.5,0,10.2-1.7,18.5-5.1,25-3.4,6.5-8,10.8-14,13.2l6.5,5.8,20.8,48.3h-23.4l-19.7-49.7-8.7-2.4v52.1h-20.4V5.6h-.2,0ZM101.3,62.9h7c5.1,0,8.9-1.7,11.5-5.2s3.9-8.8,3.9-16-1.1-9.9-3.3-13.2c-2.2-3.4-5.5-5.2-10.1-5.2s-3.3,0-5,.1-2.9.4-3.9.7v38.6h0v.2Z"/>
  <g class="st0">
    <g class="st1">
      <text class="st3" transform="translate(84.6 141.3) rotate(-180) scale(.9 1)"><tspan x="0" y="0">R</tspan></text>
    </g>
  </g>
  <path class="st2" d="M80.6,266.2c4.4,1.1,9.2,1.8,14.2,2.3,5.1.5,9.5.7,13.1.7s9.2-.5,13.6-1.6,8.3-2.9,11.8-5.5c3.3-2.6,6.1-6.4,8.2-11.1,2.1-4.7,3.2-10.5,3.2-17.5,0-10.2-1.7-18.5-5.1-25s-8-10.8-14-13.2l6.5-5.8,20.8-48.3h-23.4l-19.7,49.7-8.7,2.4v-52.1h-20.4v124.9h-.2.1ZM101,208.9h7c5.1,0,8.9,1.7,11.5,5.2s3.9,8.8,3.9,16-1.1,9.9-3.3,13.2c-2.2,3.4-5.5,5.2-10.1,5.2s-3.3,0-5-.1-2.9-.4-3.9-.7v-38.6h0v-.2Z"/>
  <g class="st0">
    <g class="st1">
      <text class="st3" transform="translate(247.4 130.2) rotate(-180) scale(.9 -1)"><tspan x="0" y="0">R</tspan></text>
    </g>
  </g>
  <path class="st2" d="M243.3,5.4c4.4-1.1,9.2-1.8,14.2-2.3,5.1-.5,9.5-.7,13.1-.7s9.2.5,13.6,1.6,8.3,2.9,11.8,5.5c3.3,2.6,6.1,6.4,8.2,11.1,2.1,4.7,3.2,10.5,3.2,17.5,0,10.2-1.7,18.5-5.1,25s-8,10.8-14,13.2l6.5,5.8,20.8,48.3h-23.4l-19.7-49.7-8.7-2.4v52.1h-20.4V5.4h-.2.1ZM263.7,62.7h7c5.1,0,8.9-1.7,11.5-5.2s3.9-8.8,3.9-16-1.1-9.9-3.3-13.2c-2.2-3.4-5.5-5.2-10.1-5.2s-3.3,0-5,.1-2.9.4-3.9.7v38.6h0v.2Z"/>
  <g class="st0">
    <g class="st1">
      <text class="st3" transform="translate(247 141.1) rotate(-180) scale(.9 1)"><tspan x="0" y="0">R</tspan></text>
    </g>
  </g>
  <path class="st2" d="M243,265.9c4.4,1.1,9.2,1.8,14.2,2.3,5.1.5,9.5.7,13.1.7s9.2-.5,13.6-1.6,8.3-2.9,11.8-5.5c3.3-2.6,6.1-6.4,8.2-11.1,2.1-4.7,3.2-10.5,3.2-17.5,0-10.2-1.7-18.5-5.1-25s-8-10.8-14-13.2l6.5-5.8,20.8-48.3h-23.4l-19.7,49.7-8.7,2.4v-52.1h-20.4v124.9h-.2,0ZM263.3,208.6h7c5.1,0,8.9,1.7,11.5,5.2s3.9,8.8,3.9,16-1.1,9.9-3.3,13.2c-2.2,3.4-5.5,5.2-10.1,5.2s-3.3,0-5-.1-2.9-.4-3.9-.7v-38.6h0v-.2Z"/>
  <g class="st0">
    <g class="st1">
      <text class="st3" transform="translate(408.3 130) rotate(-180) scale(.9 -1)"><tspan x="0" y="0">R</tspan></text>
    </g>
  </g>
  <path class="st2" d="M404.3,5.2c4.4-1.1,9.2-1.8,14.2-2.3,5.1-.5,9.5-.7,13.1-.7s9.2.5,13.6,1.6,8.3,2.9,11.8,5.5c3.3,2.6,6.1,6.4,8.2,11.1,2.1,4.7,3.2,10.5,3.2,17.5,0,10.2-1.7,18.5-5.1,25s-8,10.8-14,13.2l6.5,5.8,20.8,48.3h-23.4l-19.7-49.7-8.7-2.4v52.1h-20.4V5.2h-.2.1ZM424.7,62.5h7c5.1,0,8.9-1.7,11.5-5.2s3.9-8.8,3.9-16-1.1-9.9-3.3-13.2c-2.2-3.4-5.5-5.2-10.1-5.2s-3.3,0-5,.1-2.9.4-3.9.7v38.6h0v.2Z"/>
  <g class="st0">
    <g class="st1">
      <text class="st3" transform="translate(408 140.9) rotate(-180) scale(.9 1)"><tspan x="0" y="0">R</tspan></text>
    </g>
  </g>
  <path class="st2" d="M404,265.7c4.4,1.1,9.2,1.8,14.2,2.3,5.1.5,9.5.7,13.1.7s9.2-.5,13.6-1.6,8.3-2.9,11.8-5.5c3.3-2.6,6.1-6.4,8.2-11.1,2.1-4.7,3.2-10.5,3.2-17.5,0-10.2-1.7-18.5-5.1-25s-8-10.8-14-13.2l6.5-5.8,20.8-48.3h-23.4l-19.7,49.7-8.7,2.4v-52.1h-20.4v124.9h-.2.1ZM424.3,208.4h7c5.1,0,8.9,1.7,11.5,5.2s3.9,8.8,3.9,16-1.1,9.9-3.3,13.2c-2.2,3.4-5.5,5.2-10.1,5.2s-3.3,0-5-.1-2.9-.4-3.9-.7v-38.6h0v-.2Z"/>
  <g class="st0">
    <g class="st1">
      <text class="st3" transform="translate(569.2 129.9) rotate(-180) scale(.9 -1)"><tspan x="0" y="0">R</tspan></text>
    </g>
  </g>
  <path class="st2" d="M565.2,5.1c4.4-1.1,9.2-1.8,14.2-2.3,5.1-.5,9.5-.7,13.1-.7s9.2.5,13.6,1.6c4.4,1.1,8.3,2.9,11.8,5.5,3.3,2.6,6.1,6.4,8.2,11.1,2.1,4.7,3.2,10.5,3.2,17.5,0,10.2-1.7,18.5-5.1,25-3.3,6.5-8,10.8-14,13.2l6.5,5.8,20.8,48.3h-23.4l-19.7-49.7-8.7-2.4v52.1h-20.4V5.1h-.2.1ZM585.6,62.4h7c5.1,0,8.9-1.7,11.5-5.2s3.9-8.8,3.9-16-1.1-9.9-3.3-13.2c-2.2-3.4-5.5-5.2-10.1-5.2s-3.3,0-5,.1-2.9.4-3.9.7v38.6h0v.2Z"/>
  <g class="st0">
    <g class="st1">
      <text class="st3" transform="translate(568.9 140.8) rotate(-180) scale(.9 1)"><tspan x="0" y="0">R</tspan></text>
    </g>
  </g>
  <path class="st2" d="M564.9,265.6c4.4,1.1,9.2,1.8,14.2,2.3,5.1.5,9.5.7,13.1.7s9.2-.5,13.6-1.6c4.4-1.1,8.3-2.9,11.8-5.5,3.3-2.6,6.1-6.4,8.2-11.1,2.1-4.7,3.2-10.5,3.2-17.5,0-10.2-1.7-18.5-5.1-25s-8-10.8-14-13.2l6.5-5.8,20.8-48.3h-23.4l-19.7,49.7-8.7,2.4v-52.1h-20.4v124.9h-.2.1ZM585.2,208.3h7c5.1,0,8.9,1.7,11.5,5.2s3.9,8.8,3.9,16-1.1,9.9-3.3,13.2c-2.2,3.4-5.5,5.2-10.1,5.2s-3.3,0-5-.1-2.9-.4-3.9-.7v-38.6h0v-.2Z"/>
  <g class="st0">
    <g class="st1">
      <text class="st3" transform="translate(731.6 129.7) rotate(-180) scale(.9 -1)"><tspan x="0" y="0">R</tspan></text>
    </g>
  </g>
  <path class="st2" d="M727.6,4.8c4.4-1.1,9.2-1.8,14.2-2.3,5.1-.5,9.5-.7,13.1-.7s9.2.5,13.6,1.6c4.4,1.1,8.3,2.9,11.8,5.5,3.3,2.6,6.1,6.4,8.2,11.1,2.1,4.7,3.2,10.5,3.2,17.5,0,10.2-1.7,18.5-5.1,25s-8,10.8-14,13.2l6.5,5.8,20.8,48.3h-23.4l-19.7-49.7-8.7-2.4v52.1h-20.4V4.8h-.2.1ZM747.9,62.2h7c5.1,0,8.9-1.7,11.5-5.2s3.9-8.8,3.9-16-1.1-9.9-3.3-13.2c-2.2-3.4-5.5-5.2-10.1-5.2s-3.3,0-5,.1-2.9.4-3.9.7v38.6h0v.2Z"/>
  <g class="st0">
    <g class="st1">
      <text class="st3" transform="translate(731.2 140.5) rotate(-180) scale(.9 1)"><tspan x="0" y="0">R</tspan></text>
    </g>
  </g>
  <path class="st2" d="M727.2,265.4c4.4,1.1,9.2,1.8,14.2,2.3,5.1.5,9.5.7,13.1.7s9.2-.5,13.6-1.6c4.4-1.1,8.3-2.9,11.8-5.5,3.3-2.6,6.1-6.4,8.2-11.1,2.1-4.7,3.2-10.5,3.2-17.5,0-10.2-1.7-18.5-5.1-25s-8-10.8-14-13.2l6.5-5.8,20.8-48.3h-23.4l-19.7,49.7-8.7,2.4v-52.1h-20.4v124.9h-.2.1ZM747.6,208.1h7c5.1,0,8.9,1.7,11.5,5.2s3.9,8.8,3.9,16-1.1,9.9-3.3,13.2c-2.2,3.4-5.5,5.2-10.1,5.2s-3.3,0-5-.1-2.9-.4-3.9-.7v-38.6h0v-.2Z"/>
  <g class="st0">
    <g class="st1">
      <text class="st3" transform="translate(892.6 129.5) rotate(-180) scale(.9 -1)"><tspan x="0" y="0">R</tspan></text>
    </g>
  </g>
  <path class="st2" d="M888.6,4.7c4.4-1.1,9.2-1.8,14.2-2.3,5.1-.5,9.5-.7,13.1-.7s9.2.5,13.6,1.6c4.4,1.1,8.3,2.9,11.8,5.5,3.3,2.6,6.1,6.4,8.2,11.1,2.1,4.7,3.2,10.5,3.2,17.5,0,10.2-1.7,18.5-5.1,25-3.3,6.5-8,10.8-14,13.2l6.5,5.8,20.8,48.3h-23.4l-19.7-49.7-8.7-2.4v52.1h-20.4V4.7h-.2.1ZM908.9,62h7c5.1,0,8.9-1.7,11.5-5.2s3.9-8.8,3.9-16-1.1-9.9-3.3-13.2c-2.2-3.4-5.5-5.2-10.1-5.2s-3.3,0-5,.1-2.9.4-3.9.7v38.6h0v.2Z"/>
  <g class="st0">
    <g class="st1">
      <text class="st3" transform="translate(892.2 140.4) rotate(-180) scale(.9 1)"><tspan x="0" y="0">R</tspan></text>
    </g>
  </g>
  <path class="st2" d="M888.2,265.2c4.4,1.1,9.2,1.8,14.2,2.3,5.1.5,9.5.7,13.1.7s9.2-.5,13.6-1.6c4.4-1.1,8.3-2.9,11.8-5.5,3.3-2.6,6.1-6.4,8.2-11.1,2.1-4.7,3.2-10.5,3.2-17.5,0-10.2-1.7-18.5-5.1-25s-8-10.8-14-13.2l6.5-5.8,20.8-48.3h-23.4l-19.7,49.7-8.7,2.4v-52.1h-20.4v124.9h-.2.1ZM908.6,207.9h7c5.1,0,8.9,1.7,11.5,5.2s3.9,8.8,3.9,16-1.1,9.9-3.3,13.2c-2.2,3.4-5.5,5.2-10.1,5.2s-3.3,0-5-.1-2.9-.4-3.9-.7v-38.6h0v-.2Z"/>
  <g class="st0">
    <g class="st1">
      <text class="st3" transform="translate(85.5 401.2) rotate(-180) scale(.9 -1)"><tspan x="0" y="0">R</tspan></text>
    </g>
  </g>
  <path class="st2" d="M81.5,276.4c4.4-1.1,9.2-1.8,14.2-2.3,5.1-.5,9.5-.7,13.1-.7s9.2.5,13.6,1.6,8.3,2.9,11.8,5.5c3.3,2.6,6.1,6.4,8.2,11.1,2.1,4.7,3.2,10.5,3.2,17.5,0,10.2-1.7,18.5-5.1,25s-8,10.8-14,13.2l6.5,5.8,20.8,48.3h-23.4l-19.7-49.7-8.7-2.4v52.1h-20.4v-124.9h-.2,0ZM101.9,333.7h7c5.1,0,8.9-1.7,11.5-5.2s3.9-8.8,3.9-16-1.1-9.9-3.3-13.2c-2.2-3.4-5.5-5.2-10.1-5.2s-3.3,0-5,.1-2.9.4-3.9.7v38.6h0v.2Z"/>
  <g class="st0">
    <g class="st1">
      <text class="st3" transform="translate(85.2 412.1) rotate(-180) scale(.9 1)"><tspan x="0" y="0">R</tspan></text>
    </g>
  </g>
  <path class="st2" d="M81.1,536.9c4.4,1.1,9.2,1.8,14.2,2.3,5.1.5,9.5.7,13.1.7s9.2-.5,13.6-1.6,8.3-2.9,11.8-5.5c3.3-2.6,6.1-6.4,8.2-11.1,2.1-4.7,3.2-10.5,3.2-17.5,0-10.2-1.7-18.5-5.1-25-3.3-6.5-8-10.8-14-13.2l6.5-5.8,20.8-48.3h-23.4l-19.7,49.7-8.7,2.4v-52.1h-20.4v124.9h-.2.1ZM101.5,479.6h7c5.1,0,8.9,1.7,11.5,5.2s3.9,8.8,3.9,16-1.1,9.9-3.3,13.2c-2.2,3.4-5.5,5.2-10.1,5.2s-3.3,0-5,0-2.9-.4-3.9-.7v-38.6h0v-.2Z"/>
  <g class="st0">
    <g class="st1">
      <text class="st3" transform="translate(247.9 401) rotate(-180) scale(.9 -1)"><tspan x="0" y="0">R</tspan></text>
    </g>
  </g>
  <path class="st2" d="M243.9,276.1c4.4-1.1,9.2-1.8,14.2-2.3,5.1-.5,9.5-.7,13.1-.7s9.2.5,13.6,1.6,8.3,2.9,11.8,5.5c3.3,2.6,6.1,6.4,8.2,11.1s3.2,10.5,3.2,17.5c0,10.2-1.7,18.5-5.1,25s-8,10.8-14,13.2l6.5,5.8,20.8,48.3h-23.4l-19.7-49.7-8.7-2.4v52.1h-20.4v-124.9h-.2,0ZM264.2,333.4h7c5.1,0,8.9-1.7,11.5-5.2s3.9-8.8,3.9-16-1.1-9.9-3.3-13.2c-2.2-3.4-5.5-5.2-10.1-5.2s-3.3,0-5,.1-2.9.4-3.9.7v38.6h0v.2Z"/>
  <g class="st0">
    <g class="st1">
      <text class="st3" transform="translate(247.5 411.8) rotate(-180) scale(.9 1)"><tspan x="0" y="0">R</tspan></text>
    </g>
  </g>
  <path class="st2" d="M243.5,536.7c4.4,1.1,9.2,1.8,14.2,2.3,5.1.5,9.5.7,13.1.7s9.2-.5,13.6-1.6,8.3-2.9,11.8-5.5c3.3-2.6,6.1-6.4,8.2-11.1,2.1-4.7,3.2-10.5,3.2-17.5,0-10.2-1.7-18.5-5.1-25-3.3-6.5-8-10.8-14-13.2l6.5-5.8,20.8-48.3h-23.4l-19.7,49.7-8.7,2.4v-52.1h-20.4v124.9h-.2,0ZM263.9,479.4h7c5.1,0,8.9,1.7,11.5,5.2s3.9,8.8,3.9,16-1.1,9.9-3.3,13.2c-2.2,3.4-5.5,5.2-10.1,5.2s-3.3,0-5,0-2.9-.4-3.9-.7v-38.6h0v-.2Z"/>
  <g class="st0">
    <g class="st1">
      <text class="st3" transform="translate(408.9 400.8) rotate(-180) scale(.9 -1)"><tspan x="0" y="0">R</tspan></text>
    </g>
  </g>
  <path class="st2" d="M404.9,276c4.4-1.1,9.2-1.8,14.2-2.3,5.1-.5,9.5-.7,13.1-.7s9.2.5,13.6,1.6,8.3,2.9,11.8,5.5c3.3,2.6,6.1,6.4,8.2,11.1s3.2,10.5,3.2,17.5c0,10.2-1.7,18.5-5.1,25s-8,10.8-14,13.2l6.5,5.8,20.8,48.3h-23.4l-19.7-49.7-8.7-2.4v52.1h-20.4v-124.9h-.2.1ZM425.2,333.3h7c5.1,0,8.9-1.7,11.5-5.2s3.9-8.8,3.9-16-1.1-9.9-3.3-13.2c-2.2-3.4-5.5-5.2-10.1-5.2s-3.3,0-5,.1-2.9.4-3.9.7v38.6h0v.2Z"/>
  <g class="st0">
    <g class="st1">
      <text class="st3" transform="translate(408.5 411.7) rotate(-180) scale(.9 1)"><tspan x="0" y="0">R</tspan></text>
    </g>
  </g>
  <path class="st2" d="M404.5,536.5c4.4,1.1,9.2,1.8,14.2,2.3,5.1.5,9.5.7,13.1.7s9.2-.5,13.6-1.6,8.3-2.9,11.8-5.5c3.3-2.6,6.1-6.4,8.2-11.1,2.1-4.7,3.2-10.5,3.2-17.5,0-10.2-1.7-18.5-5.1-25s-8-10.8-14-13.2l6.5-5.8,20.8-48.3h-23.4l-19.7,49.7-8.7,2.4v-52.1h-20.4v124.9h-.2.1ZM424.9,479.2h7c5.1,0,8.9,1.7,11.5,5.2s3.9,8.8,3.9,16-1.1,9.9-3.3,13.2c-2.2,3.4-5.5,5.2-10.1,5.2s-3.3,0-5,0-2.9-.4-3.9-.7v-38.6h0v-.2Z"/>
  <g class="st0">
    <g class="st1">
      <text class="st3" transform="translate(569.8 400.7) rotate(-180) scale(.9 -1)"><tspan x="0" y="0">R</tspan></text>
    </g>
  </g>
  <path class="st2" d="M565.8,275.8c4.4-1.1,9.2-1.8,14.2-2.3,5.1-.5,9.5-.7,13.1-.7s9.2.5,13.6,1.6c4.4,1.1,8.3,2.9,11.8,5.5,3.3,2.6,6.1,6.4,8.2,11.1,2.1,4.7,3.2,10.5,3.2,17.5,0,10.2-1.7,18.5-5.1,25s-8,10.8-14,13.2l6.5,5.8,20.8,48.3h-23.4l-19.7-49.7-8.7-2.4v52.1h-20.4v-124.9h-.2.1ZM586.1,333.1h7c5.1,0,8.9-1.7,11.5-5.2s3.9-8.8,3.9-16-1.1-9.9-3.3-13.2c-2.2-3.4-5.5-5.2-10.1-5.2s-3.3,0-5,.1-2.9.4-3.9.7v38.6h0v.2Z"/>
  <g class="st0">
    <g class="st1">
      <text class="st3" transform="translate(569.4 411.5) rotate(-180) scale(.9 1)"><tspan x="0" y="0">R</tspan></text>
    </g>
  </g>
  <path class="st2" d="M565.4,536.4c4.4,1.1,9.2,1.8,14.2,2.3,5.1.5,9.5.7,13.1.7s9.2-.5,13.6-1.6c4.4-1.1,8.3-2.9,11.8-5.5,3.3-2.6,6.1-6.4,8.2-11.1,2.1-4.7,3.2-10.5,3.2-17.5,0-10.2-1.7-18.5-5.1-25s-8-10.8-14-13.2l6.5-5.8,20.8-48.3h-23.4l-19.7,49.7-8.7,2.4v-52.1h-20.4v124.9h-.2.1ZM585.8,479h7c5.1,0,8.9,1.7,11.5,5.2s3.9,8.8,3.9,16-1.1,9.9-3.3,13.2c-2.2,3.4-5.5,5.2-10.1,5.2s-3.3,0-5,0-2.9-.4-3.9-.7v-38.6h0v-.2Z"/>
  <g class="st0">
    <g class="st1">
      <text class="st3" transform="translate(732.1 400.4) rotate(-180) scale(.9 -1)"><tspan x="0" y="0">R</tspan></text>
    </g>
  </g>
  <path class="st2" d="M728.1,275.6c4.4-1.1,9.2-1.8,14.2-2.3,5.1-.5,9.5-.7,13.1-.7s9.2.5,13.6,1.6c4.4,1.1,8.3,2.9,11.8,5.5,3.3,2.6,6.1,6.4,8.2,11.1,2.1,4.7,3.2,10.5,3.2,17.5,0,10.2-1.7,18.5-5.1,25s-8,10.8-14,13.2l6.5,5.8,20.8,48.3h-23.4l-19.7-49.7-8.7-2.4v52.1h-20.4v-124.9h-.2.1ZM748.5,332.9h7c5.1,0,8.9-1.7,11.5-5.2s3.9-8.8,3.9-16-1.1-9.9-3.3-13.2c-2.2-3.4-5.5-5.2-10.1-5.2s-3.3,0-5,.1-2.9.4-3.9.7v38.6h0v.2Z"/>
  <g class="st0">
    <g class="st1">
      <text class="st3" transform="translate(731.8 411.3) rotate(-180) scale(.9 1)"><tspan x="0" y="0">R</tspan></text>
    </g>
  </g>
  <path class="st2" d="M727.8,536.1c4.4,1.1,9.2,1.8,14.2,2.3,5.1.5,9.5.7,13.1.7s9.2-.5,13.6-1.6c4.4-1.1,8.3-2.9,11.8-5.5,3.3-2.6,6.1-6.4,8.2-11.1,2.1-4.7,3.2-10.5,3.2-17.5,0-10.2-1.7-18.5-5.1-25s-8-10.8-14-13.2l6.5-5.8,20.8-48.3h-23.4l-19.7,49.7-8.7,2.4v-52.1h-20.4v124.9h-.2.1ZM748.1,478.8h7c5.1,0,8.9,1.7,11.5,5.2s3.9,8.8,3.9,16-1.1,9.9-3.3,13.2c-2.2,3.4-5.5,5.2-10.1,5.2s-3.3,0-5,0-2.9-.4-3.9-.7v-38.6h0v-.2Z"/>
  <g class="st0">
    <g class="st1">
      <text class="st3" transform="translate(893.1 400.2) rotate(-180) scale(.9 -1)"><tspan x="0" y="0">R</tspan></text>
    </g>
  </g>
  <path class="st2" d="M889.1,275.4c4.4-1.1,9.2-1.8,14.2-2.3,5.1-.5,9.5-.7,13.1-.7s9.2.5,13.6,1.6c4.4,1.1,8.3,2.9,11.8,5.5,3.3,2.6,6.1,6.4,8.2,11.1,2.1,4.7,3.2,10.5,3.2,17.5,0,10.2-1.7,18.5-5.1,25-3.3,6.5-8,10.8-14,13.2l6.5,5.8,20.8,48.3h-23.4l-19.7-49.7-8.7-2.4v52.1h-20.4v-124.9h-.2.1ZM909.5,332.7h7c5.1,0,8.9-1.7,11.5-5.2s3.9-8.8,3.9-16-1.1-9.9-3.3-13.2c-2.2-3.4-5.5-5.2-10.1-5.2s-3.3,0-5,.1-2.9.4-3.9.7v38.6h0v.2Z"/>
  <g class="st0">
    <g class="st1">
      <text class="st3" transform="translate(892.8 411.1) rotate(-180) scale(.9 1)"><tspan x="0" y="0">R</tspan></text>
    </g>
  </g>
  <path class="st2" d="M888.7,535.9c4.4,1.1,9.2,1.8,14.2,2.3,5.1.5,9.5.7,13.1.7s9.2-.5,13.6-1.6c4.4-1.1,8.3-2.9,11.8-5.5,3.3-2.6,6.1-6.4,8.2-11.1,2.1-4.7,3.2-10.5,3.2-17.5,0-10.2-1.7-18.5-5.1-25s-8-10.8-14-13.2l6.5-5.8,20.8-48.3h-23.4l-19.7,49.7-8.7,2.4v-52.1h-20.4v124.9h-.2.1ZM909.1,478.6h7c5.1,0,8.9,1.7,11.5,5.2s3.9,8.8,3.9,16-1.1,9.9-3.3,13.2c-2.2,3.4-5.5,5.2-10.1,5.2s-3.3,0-5,0-2.9-.4-3.9-.7v-38.6h0v-.2Z"/>
  <g class="st0">
    <g class="st1">
      <text class="st3" transform="translate(85 669.2) rotate(-180) scale(.9 -1)"><tspan x="0" y="0">R</tspan></text>
    </g>
  </g>
  <path class="st2" d="M81,544.4c4.4-1.1,9.2-1.8,14.2-2.3,5.1-.5,9.5-.7,13.1-.7s9.2.5,13.6,1.6,8.3,2.9,11.8,5.5c3.3,2.6,6.1,6.4,8.2,11.1,2.1,4.7,3.2,10.5,3.2,17.5,0,10.2-1.7,18.5-5.1,25s-8,10.8-14,13.2l6.5,5.8,20.8,48.3h-23.4l-19.7-49.7-8.7-2.4v52.1h-20.4v-124.9h-.2,0ZM101.4,601.7h7c5.1,0,8.9-1.7,11.5-5.2s3.9-8.8,3.9-16-1.1-9.9-3.3-13.2c-2.2-3.4-5.5-5.2-10.1-5.2s-3.3,0-5,0-2.9.4-3.9.7v38.6h0v.2Z"/>
  <g class="st0">
    <g class="st1">
      <text class="st3" transform="translate(84.7 680.1) rotate(-180) scale(.9 1)"><tspan x="0" y="0">R</tspan></text>
    </g>
  </g>
  <path class="st2" d="M80.6,804.9c4.4,1.1,9.2,1.8,14.2,2.3,5.1.5,9.5.7,13.1.7s9.2-.5,13.6-1.6,8.3-2.9,11.8-5.5c3.3-2.6,6.1-6.4,8.2-11.1,2.1-4.7,3.2-10.5,3.2-17.5,0-10.2-1.7-18.5-5.1-25s-8-10.8-14-13.2l6.5-5.8,20.8-48.3h-23.4l-19.7,49.7-8.7,2.4v-52.1h-20.4v124.9h-.2.1ZM101,747.6h7c5.1,0,8.9,1.7,11.5,5.2s3.9,8.8,3.9,16-1.1,9.9-3.3,13.2c-2.2,3.4-5.5,5.2-10.1,5.2s-3.3,0-5,0-2.9-.4-3.9-.7v-38.6h0v-.2Z"/>
  <g class="st0">
    <g class="st1">
      <text class="st3" transform="translate(247.4 669) rotate(-180) scale(.9 -1)"><tspan x="0" y="0">R</tspan></text>
    </g>
  </g>
  <path class="st2" d="M243.4,544.1c4.4-1.1,9.2-1.8,14.2-2.3,5.1-.5,9.5-.7,13.1-.7s9.2.5,13.6,1.6,8.3,2.9,11.8,5.5c3.3,2.6,6.1,6.4,8.2,11.1,2.1,4.7,3.2,10.5,3.2,17.5,0,10.2-1.7,18.5-5.1,25s-8,10.8-14,13.2l6.5,5.8,20.8,48.3h-23.4l-19.7-49.7-8.7-2.4v52.1h-20.4v-124.9h-.2,0ZM263.7,601.4h7c5.1,0,8.9-1.7,11.5-5.2s3.9-8.8,3.9-16-1.1-9.9-3.3-13.2c-2.2-3.4-5.5-5.2-10.1-5.2s-3.3,0-5,0-2.9.4-3.9.7v38.6h0v.2Z"/>
  <g class="st0">
    <g class="st1">
      <text class="st3" transform="translate(247 679.8) rotate(-180) scale(.9 1)"><tspan x="0" y="0">R</tspan></text>
    </g>
  </g>
  <path class="st2" d="M243,804.7c4.4,1.1,9.2,1.8,14.2,2.3,5.1.5,9.5.7,13.1.7s9.2-.5,13.6-1.6,8.3-2.9,11.8-5.5c3.3-2.6,6.1-6.4,8.2-11.1,2.1-4.7,3.2-10.5,3.2-17.5,0-10.2-1.7-18.5-5.1-25s-8-10.8-14-13.2l6.5-5.8,20.8-48.3h-23.4l-19.7,49.7-8.7,2.4v-52.1h-20.4v124.9h-.2,0ZM263.4,747.4h7c5.1,0,8.9,1.7,11.5,5.2s3.9,8.8,3.9,16-1.1,9.9-3.3,13.2c-2.2,3.4-5.5,5.2-10.1,5.2s-3.3,0-5,0-2.9-.4-3.9-.7v-38.6h0v-.2Z"/>
  <g class="st0">
    <g class="st1">
      <text class="st3" transform="translate(408.4 668.8) rotate(-180) scale(.9 -1)"><tspan x="0" y="0">R</tspan></text>
    </g>
  </g>
  <path class="st2" d="M404.4,544c4.4-1.1,9.2-1.8,14.2-2.3,5.1-.5,9.5-.7,13.1-.7s9.2.5,13.6,1.6,8.3,2.9,11.8,5.5c3.3,2.6,6.1,6.4,8.2,11.1,2.1,4.7,3.2,10.5,3.2,17.5,0,10.2-1.7,18.5-5.1,25-3.3,6.5-8,10.8-14,13.2l6.5,5.8,20.8,48.3h-23.4l-19.7-49.7-8.7-2.4v52.1h-20.4v-124.9h-.2.1ZM424.7,601.3h7c5.1,0,8.9-1.7,11.5-5.2s3.9-8.8,3.9-16-1.1-9.9-3.3-13.2c-2.2-3.4-5.5-5.2-10.1-5.2s-3.3,0-5,0-2.9.4-3.9.7v38.6h0v.2Z"/>
  <g class="st0">
    <g class="st1">
      <text class="st3" transform="translate(408 679.7) rotate(-180) scale(.9 1)"><tspan x="0" y="0">R</tspan></text>
    </g>
  </g>
  <path class="st2" d="M404,804.5c4.4,1.1,9.2,1.8,14.2,2.3,5.1.5,9.5.7,13.1.7s9.2-.5,13.6-1.6,8.3-2.9,11.8-5.5c3.3-2.6,6.1-6.4,8.2-11.1,2.1-4.7,3.2-10.5,3.2-17.5,0-10.2-1.7-18.5-5.1-25s-8-10.8-14-13.2l6.5-5.8,20.8-48.3h-23.4l-19.7,49.7-8.7,2.4v-52.1h-20.4v124.9h-.2.1ZM424.4,747.2h7c5.1,0,8.9,1.7,11.5,5.2s3.9,8.8,3.9,16-1.1,9.9-3.3,13.2c-2.2,3.4-5.5,5.2-10.1,5.2s-3.3,0-5,0-2.9-.4-3.9-.7v-38.6h0v-.2Z"/>
  <g class="st0">
    <g class="st1">
      <text class="st3" transform="translate(569.3 668.7) rotate(-180) scale(.9 -1)"><tspan x="0" y="0">R</tspan></text>
    </g>
  </g>
  <path class="st2" d="M565.2,543.8c4.4-1.1,9.2-1.8,14.2-2.3,5.1-.5,9.5-.7,13.1-.7s9.2.5,13.6,1.6c4.4,1.1,8.3,2.9,11.8,5.5,3.3,2.6,6.1,6.4,8.2,11.1,2.1,4.7,3.2,10.5,3.2,17.5,0,10.2-1.7,18.5-5.1,25-3.3,6.5-8,10.8-14,13.2l6.5,5.8,20.8,48.3h-23.4l-19.7-49.7-8.7-2.4v52.1h-20.4v-124.9h-.2.1ZM585.6,601.1h7c5.1,0,8.9-1.7,11.5-5.2s3.9-8.8,3.9-16-1.1-9.9-3.3-13.2c-2.2-3.4-5.5-5.2-10.1-5.2s-3.3,0-5,0-2.9.4-3.9.7v38.6h0v.2Z"/>
  <g class="st0">
    <g class="st1">
      <text class="st3" transform="translate(568.9 679.5) rotate(-180) scale(.9 1)"><tspan x="0" y="0">R</tspan></text>
    </g>
  </g>
  <path class="st2" d="M564.9,804.4c4.4,1.1,9.2,1.8,14.2,2.3,5.1.5,9.5.7,13.1.7s9.2-.5,13.6-1.6c4.4-1.1,8.3-2.9,11.8-5.5,3.3-2.6,6.1-6.4,8.2-11.1,2.1-4.7,3.2-10.5,3.2-17.5,0-10.2-1.7-18.5-5.1-25-3.3-6.5-8-10.8-14-13.2l6.5-5.8,20.8-48.3h-23.4l-19.7,49.7-8.7,2.4v-52.1h-20.4v124.9h-.2.1ZM585.2,747.1h7c5.1,0,8.9,1.7,11.5,5.2s3.9,8.8,3.9,16-1.1,9.9-3.3,13.2c-2.2,3.4-5.5,5.2-10.1,5.2s-3.3,0-5,0-2.9-.4-3.9-.7v-38.6h0v-.2Z"/>
  <g class="st0">
    <g class="st1">
      <text class="st3" transform="translate(731.6 668.4) rotate(-180) scale(.9 -1)"><tspan x="0" y="0">R</tspan></text>
    </g>
  </g>
  <path class="st2" d="M727.6,543.6c4.4-1.1,9.2-1.8,14.2-2.3,5.1-.5,9.5-.7,13.1-.7s9.2.5,13.6,1.6c4.4,1.1,8.3,2.9,11.8,5.5,3.3,2.6,6.1,6.4,8.2,11.1,2.1,4.7,3.2,10.5,3.2,17.5,0,10.2-1.7,18.5-5.1,25s-8,10.8-14,13.2l6.5,5.8,20.8,48.3h-23.4l-19.7-49.7-8.7-2.4v52.1h-20.4v-124.9h-.2.1ZM748,600.9h7c5.1,0,8.9-1.7,11.5-5.2s3.9-8.8,3.9-16-1.1-9.9-3.3-13.2c-2.2-3.4-5.5-5.2-10.1-5.2s-3.3,0-5,0-2.9.4-3.9.7v38.6h0v.2Z"/>
  <g class="st0">
    <g class="st1">
      <text class="st3" transform="translate(731.3 679.3) rotate(-180) scale(.9 1)"><tspan x="0" y="0">R</tspan></text>
    </g>
  </g>
  <path class="st2" d="M727.2,804.1c4.4,1.1,9.2,1.8,14.2,2.3,5.1.5,9.5.7,13.1.7s9.2-.5,13.6-1.6c4.4-1.1,8.3-2.9,11.8-5.5,3.3-2.6,6.1-6.4,8.2-11.1,2.1-4.7,3.2-10.5,3.2-17.5,0-10.2-1.7-18.5-5.1-25s-8-10.8-14-13.2l6.5-5.8,20.8-48.3h-23.4l-19.7,49.7-8.7,2.4v-52.1h-20.4v124.9h-.2.1ZM747.6,746.8h7c5.1,0,8.9,1.7,11.5,5.2s3.9,8.8,3.9,16-1.1,9.9-3.3,13.2c-2.2,3.4-5.5,5.2-10.1,5.2s-3.3,0-5,0-2.9-.4-3.9-.7v-38.6h0v-.2Z"/>
  <g class="st0">
    <g class="st1">
      <text class="st3" transform="translate(892.6 668.2) rotate(-180) scale(.9 -1)"><tspan x="0" y="0">R</tspan></text>
    </g>
  </g>
  <path class="st2" d="M888.6,543.4c4.4-1.1,9.2-1.8,14.2-2.3,5.1-.5,9.5-.7,13.1-.7s9.2.5,13.6,1.6c4.4,1.1,8.3,2.9,11.8,5.5,3.3,2.6,6.1,6.4,8.2,11.1,2.1,4.7,3.2,10.5,3.2,17.5,0,10.2-1.7,18.5-5.1,25s-8,10.8-14,13.2l6.5,5.8,20.8,48.3h-23.4l-19.7-49.7-8.7-2.4v52.1h-20.4v-124.9h-.2.1ZM909,600.7h7c5.1,0,8.9-1.7,11.5-5.2s3.9-8.8,3.9-16-1.1-9.9-3.3-13.2c-2.2-3.4-5.5-5.2-10.1-5.2s-3.3,0-5,0-2.9.4-3.9.7v38.6h0v.2Z"/>
  <g class="st0">
    <g class="st1">
      <text class="st3" transform="translate(892.3 679.1) rotate(-180) scale(.9 1)"><tspan x="0" y="0">R</tspan></text>
    </g>
  </g>
  <path class="st2" d="M888.2,803.9c4.4,1.1,9.2,1.8,14.2,2.3,5.1.5,9.5.7,13.1.7s9.2-.5,13.6-1.6c4.4-1.1,8.3-2.9,11.8-5.5,3.3-2.6,6.1-6.4,8.2-11.1,2.1-4.7,3.2-10.5,3.2-17.5,0-10.2-1.7-18.5-5.1-25s-8-10.8-14-13.2l6.5-5.8,20.8-48.3h-23.4l-19.7,49.7-8.7,2.4v-52.1h-20.4v124.9h-.2.1ZM908.6,746.6h7c5.1,0,8.9,1.7,11.5,5.2s3.9,8.8,3.9,16-1.1,9.9-3.3,13.2c-2.2,3.4-5.5,5.2-10.1,5.2s-3.3,0-5,0-2.9-.4-3.9-.7v-38.6h0v-.2Z"/>
  <g class="st0">
    <g class="st1">
      <text class="st3" transform="translate(85.6 939.9) rotate(-180) scale(.9 -1)"><tspan x="0" y="0">R</tspan></text>
    </g>
  </g>
  <path class="st2" d="M81.5,815.1c4.4-1.1,9.2-1.8,14.2-2.3,5.1-.5,9.5-.7,13.1-.7s9.2.5,13.6,1.6,8.3,2.9,11.8,5.5c3.3,2.6,6.1,6.4,8.2,11.1,2.1,4.7,3.2,10.5,3.2,17.5,0,10.2-1.7,18.5-5.1,25-3.3,6.5-8,10.8-14,13.2l6.5,5.8,20.8,48.3h-23.4l-19.7-49.7-8.7-2.4v52.1h-20.4v-124.9h-.2,0ZM101.9,872.4h7c5.1,0,8.9-1.7,11.5-5.2s3.9-8.8,3.9-16-1.1-9.9-3.3-13.2c-2.2-3.4-5.5-5.2-10.1-5.2s-3.3,0-5,0-2.9.4-3.9.7v38.6h0v.2Z"/>
  <g class="st0">
    <g class="st1">
      <text class="st3" transform="translate(85.2 950.8) rotate(-180) scale(.9 1)"><tspan x="0" y="0">R</tspan></text>
    </g>
  </g>
  <path class="st2" d="M81.2,1075.6c4.4,1.1,9.2,1.8,14.2,2.3,5.1.5,9.5.7,13.1.7s9.2-.5,13.6-1.6,8.3-2.9,11.8-5.5c3.3-2.6,6.1-6.4,8.2-11.1,2.1-4.7,3.2-10.5,3.2-17.5,0-10.2-1.7-18.5-5.1-25-3.3-6.5-8-10.8-14-13.2l6.5-5.8,20.8-48.3h-23.4l-19.7,49.7-8.7,2.4v-52.1h-20.4v124.9h-.2,0ZM101.5,1018.3h7c5.1,0,8.9,1.7,11.5,5.2s3.9,8.8,3.9,16-1.1,9.9-3.3,13.2c-2.2,3.4-5.5,5.2-10.1,5.2s-3.3,0-5,0-2.9-.4-3.9-.7v-38.6h0v-.2Z"/>
  <g class="st0">
    <g class="st1">
      <text class="st3" transform="translate(247.9 939.7) rotate(-180) scale(.9 -1)"><tspan x="0" y="0">R</tspan></text>
    </g>
  </g>
  <path class="st2" d="M243.9,814.9c4.4-1.1,9.2-1.8,14.2-2.3,5.1-.5,9.5-.7,13.1-.7s9.2.5,13.6,1.6,8.3,2.9,11.8,5.5c3.3,2.6,6.1,6.4,8.2,11.1,2.1,4.7,3.2,10.5,3.2,17.5,0,10.2-1.7,18.5-5.1,25-3.3,6.5-8,10.8-14,13.2l6.5,5.8,20.8,48.3h-23.4l-19.7-49.7-8.7-2.4v52.1h-20.4v-124.9h-.2,0ZM264.3,872.2h7c5.1,0,8.9-1.7,11.5-5.2s3.9-8.8,3.9-16-1.1-9.9-3.3-13.2c-2.2-3.4-5.5-5.2-10.1-5.2s-3.3,0-5,0-2.9.4-3.9.7v38.6h0v.2Z"/>
  <g class="st0">
    <g class="st1">
      <text class="st3" transform="translate(247.6 950.6) rotate(-180) scale(.9 1)"><tspan x="0" y="0">R</tspan></text>
    </g>
  </g>
  <path class="st2" d="M243.5,1075.4c4.4,1.1,9.2,1.8,14.2,2.3,5.1.5,9.5.7,13.1.7s9.2-.5,13.6-1.6,8.3-2.9,11.8-5.5c3.3-2.6,6.1-6.4,8.2-11.1s3.2-10.5,3.2-17.5c0-10.2-1.7-18.5-5.1-25s-8-10.8-14-13.2l6.5-5.8,20.8-48.3h-23.4l-19.7,49.7-8.7,2.4v-52.1h-20.4v124.9h-.2,0ZM263.9,1018.1h7c5.1,0,8.9,1.7,11.5,5.2,2.6,3.5,3.9,8.8,3.9,16s-1.1,9.9-3.3,13.2c-2.2,3.4-5.5,5.2-10.1,5.2s-3.3,0-5,0-2.9-.4-3.9-.7v-38.6h0v-.2Z"/>
  <g class="st0">
    <g class="st1">
      <text class="st3" transform="translate(408.9 939.5) rotate(-180) scale(.9 -1)"><tspan x="0" y="0">R</tspan></text>
    </g>
  </g>
  <path class="st2" d="M404.9,814.7c4.4-1.1,9.2-1.8,14.2-2.3,5.1-.5,9.5-.7,13.1-.7s9.2.5,13.6,1.6,8.3,2.9,11.8,5.5c3.3,2.6,6.1,6.4,8.2,11.1,2.1,4.7,3.2,10.5,3.2,17.5,0,10.2-1.7,18.5-5.1,25-3.3,6.5-8,10.8-14,13.2l6.5,5.8,20.8,48.3h-23.4l-19.7-49.7-8.7-2.4v52.1h-20.4v-124.9h-.2.1ZM425.3,872h7c5.1,0,8.9-1.7,11.5-5.2s3.9-8.8,3.9-16-1.1-9.9-3.3-13.2c-2.2-3.4-5.5-5.2-10.1-5.2s-3.3,0-5,0-2.9.4-3.9.7v38.6h0v.2Z"/>
  <g class="st0">
    <g class="st1">
      <text class="st3" transform="translate(408.5 950.4) rotate(-180) scale(.9 1)"><tspan x="0" y="0">R</tspan></text>
    </g>
  </g>
  <path class="st2" d="M404.5,1075.2c4.4,1.1,9.2,1.8,14.2,2.3,5.1.5,9.5.7,13.1.7s9.2-.5,13.6-1.6,8.3-2.9,11.8-5.5c3.3-2.6,6.1-6.4,8.2-11.1s3.2-10.5,3.2-17.5c0-10.2-1.7-18.5-5.1-25s-8-10.8-14-13.2l6.5-5.8,20.8-48.3h-23.4l-19.7,49.7-8.7,2.4v-52.1h-20.4v124.9h-.2.1ZM424.9,1017.9h7c5.1,0,8.9,1.7,11.5,5.2,2.6,3.5,3.9,8.8,3.9,16s-1.1,9.9-3.3,13.2c-2.2,3.4-5.5,5.2-10.1,5.2s-3.3,0-5,0-2.9-.4-3.9-.7v-38.6h0v-.2Z"/>
  <g class="st0">
    <g class="st1">
      <text class="st3" transform="translate(569.8 939.4) rotate(-180) scale(.9 -1)"><tspan x="0" y="0">R</tspan></text>
    </g>
  </g>
  <path class="st2" d="M565.8,814.6c4.4-1.1,9.2-1.8,14.2-2.3,5.1-.5,9.5-.7,13.1-.7s9.2.5,13.6,1.6c4.4,1.1,8.3,2.9,11.8,5.5,3.3,2.6,6.1,6.4,8.2,11.1,2.1,4.7,3.2,10.5,3.2,17.5,0,10.2-1.7,18.5-5.1,25s-8,10.8-14,13.2l6.5,5.8,20.8,48.3h-23.4l-19.7-49.7-8.7-2.4v52.1h-20.4v-124.9h-.2.1ZM586.2,871.9h7c5.1,0,8.9-1.7,11.5-5.2s3.9-8.8,3.9-16-1.1-9.9-3.3-13.2c-2.2-3.4-5.5-5.2-10.1-5.2s-3.3,0-5,0-2.9.4-3.9.7v38.6h0v.2Z"/>
  <g class="st0">
    <g class="st1">
      <text class="st3" transform="translate(569.4 950.3) rotate(-180) scale(.9 1)"><tspan x="0" y="0">R</tspan></text>
    </g>
  </g>
  <path class="st2" d="M565.4,1075.1c4.4,1.1,9.2,1.8,14.2,2.3,5.1.5,9.5.7,13.1.7s9.2-.5,13.6-1.6c4.4-1.1,8.3-2.9,11.8-5.5,3.3-2.6,6.1-6.4,8.2-11.1,2.1-4.7,3.2-10.5,3.2-17.5,0-10.2-1.7-18.5-5.1-25-3.3-6.5-8-10.8-14-13.2l6.5-5.8,20.8-48.3h-23.4l-19.7,49.7-8.7,2.4v-52.1h-20.4v124.9h-.2.1ZM585.8,1017.8h7c5.1,0,8.9,1.7,11.5,5.2s3.9,8.8,3.9,16-1.1,9.9-3.3,13.2c-2.2,3.4-5.5,5.2-10.1,5.2s-3.3,0-5,0-2.9-.4-3.9-.7v-38.6h0v-.2Z"/>
  <g class="st0">
    <g class="st1">
      <text class="st3" transform="translate(732.2 939.2) rotate(-180) scale(.9 -1)"><tspan x="0" y="0">R</tspan></text>
    </g>
  </g>
  <path class="st2" d="M728.1,814.3c4.4-1.1,9.2-1.8,14.2-2.3,5.1-.5,9.5-.7,13.1-.7s9.2.5,13.6,1.6c4.4,1.1,8.3,2.9,11.8,5.5,3.3,2.6,6.1,6.4,8.2,11.1,2.1,4.7,3.2,10.5,3.2,17.5,0,10.2-1.7,18.5-5.1,25-3.3,6.5-8,10.8-14,13.2l6.5,5.8,20.8,48.3h-23.4l-19.7-49.7-8.7-2.4v52.1h-20.4v-124.9h-.2.1ZM748.5,871.6h7c5.1,0,8.9-1.7,11.5-5.2s3.9-8.8,3.9-16-1.1-9.9-3.3-13.2c-2.2-3.4-5.5-5.2-10.1-5.2s-3.3,0-5,0-2.9.4-3.9.7v38.6h0v.2Z"/>
  <g class="st0">
    <g class="st1">
      <text class="st3" transform="translate(731.8 950) rotate(-180) scale(.9 1)"><tspan x="0" y="0">R</tspan></text>
    </g>
  </g>
  <path class="st2" d="M727.8,1074.9c4.4,1.1,9.2,1.8,14.2,2.3,5.1.5,9.5.7,13.1.7s9.2-.5,13.6-1.6c4.4-1.1,8.3-2.9,11.8-5.5,3.3-2.6,6.1-6.4,8.2-11.1,2.1-4.7,3.2-10.5,3.2-17.5,0-10.2-1.7-18.5-5.1-25s-8-10.8-14-13.2l6.5-5.8,20.8-48.3h-23.4l-19.7,49.7-8.7,2.4v-52.1h-20.4v124.9h-.2.1ZM748.1,1017.6h7c5.1,0,8.9,1.7,11.5,5.2,2.6,3.5,3.9,8.8,3.9,16s-1.1,9.9-3.3,13.2c-2.2,3.4-5.5,5.2-10.1,5.2s-3.3,0-5,0-2.9-.4-3.9-.7v-38.6h0v-.2Z"/>
  <g class="st0">
    <g class="st1">
      <text class="st3" transform="translate(893.2 939) rotate(-180) scale(.9 -1)"><tspan x="0" y="0">R</tspan></text>
    </g>
  </g>
  <path class="st2" d="M889.1,814.2c4.4-1.1,9.2-1.8,14.2-2.3,5.1-.5,9.5-.7,13.1-.7s9.2.5,13.6,1.6c4.4,1.1,8.3,2.9,11.8,5.5,3.3,2.6,6.1,6.4,8.2,11.1,2.1,4.7,3.2,10.5,3.2,17.5,0,10.2-1.7,18.5-5.1,25-3.3,6.5-8,10.8-14,13.2l6.5,5.8,20.8,48.3h-23.4l-19.7-49.7-8.7-2.4v52.1h-20.4v-124.9h-.2.1ZM909.5,871.5h7c5.1,0,8.9-1.7,11.5-5.2s3.9-8.8,3.9-16-1.1-9.9-3.3-13.2c-2.2-3.4-5.5-5.2-10.1-5.2s-3.3,0-5,0-2.9.4-3.9.7v38.6h0v.2Z"/>
  <g class="st0">
    <g class="st1">
      <text class="st3" transform="translate(892.8 949.9) rotate(-180) scale(.9 1)"><tspan x="0" y="0">R</tspan></text>
    </g>
  </g>
  <path class="st2" d="M888.8,1074.7c4.4,1.1,9.2,1.8,14.2,2.3,5.1.5,9.5.7,13.1.7s9.2-.5,13.6-1.6c4.4-1.1,8.3-2.9,11.8-5.5,3.3-2.6,6.1-6.4,8.2-11.1,2.1-4.7,3.2-10.5,3.2-17.5,0-10.2-1.7-18.5-5.1-25s-8-10.8-14-13.2l6.5-5.8,20.8-48.3h-23.4l-19.7,49.7-8.7,2.4v-52.1h-20.4v124.9h-.2.1ZM909.1,1017.4h7c5.1,0,8.9,1.7,11.5,5.2,2.6,3.5,3.9,8.8,3.9,16s-1.1,9.9-3.3,13.2c-2.2,3.4-5.5,5.2-10.1,5.2s-3.3,0-5,0-2.9-.4-3.9-.7v-38.6h0v-.2Z"/>
  <g class="st0">
    <g class="st1">
      <text class="st3" transform="translate(1043.5 129.7) rotate(-180) scale(.9 -1)"><tspan x="0" y="0">R</tspan></text>
    </g>
  </g>
  <path class="st2" d="M1039.5,4.9c4.4-1.1,9.2-1.8,14.2-2.3,5.1-.5,9.5-.7,13.1-.7s9.2.5,13.6,1.6,8.3,2.9,11.8,5.5c3.3,2.6,6.1,6.4,8.2,11.1,2.1,4.7,3.2,10.5,3.2,17.5,0,10.2-1.7,18.5-5.1,25-3.3,6.5-8,10.8-14,13.2l6.5,5.8,20.8,48.3h-23.4l-19.7-49.7-8.7-2.4v52.1h-20.4V4.9h-.2,0ZM1059.8,62.2h7c5.1,0,8.9-1.7,11.5-5.2s3.9-8.8,3.9-16-1.1-9.9-3.3-13.2c-2.2-3.4-5.5-5.2-10.1-5.2s-3.3,0-5,.1-2.9.4-3.9.7v38.6h0v.2Z"/>
  <g class="st0">
    <g class="st1">
      <text class="st3" transform="translate(1043.1 140.6) rotate(-180) scale(.9 1)"><tspan x="0" y="0">R</tspan></text>
    </g>
  </g>
  <path class="st2" d="M1039.1,265.4c4.4,1.1,9.2,1.8,14.2,2.3,5.1.5,9.5.7,13.1.7s9.2-.5,13.6-1.6,8.3-2.9,11.8-5.5c3.3-2.6,6.1-6.4,8.2-11.1,2.1-4.7,3.2-10.5,3.2-17.5,0-10.2-1.7-18.5-5.1-25s-8-10.8-14-13.2l6.5-5.8,20.8-48.3h-23.4l-19.7,49.7-8.7,2.4v-52.1h-20.4v124.9h-.2,0ZM1059.5,208.1h7c5.1,0,8.9,1.7,11.5,5.2s3.9,8.8,3.9,16-1.1,9.9-3.3,13.2c-2.2,3.4-5.5,5.2-10.1,5.2s-3.3,0-5-.1-2.9-.4-3.9-.7v-38.6h0v-.2Z"/>
  <g class="st0">
    <g class="st1">
      <text class="st3" transform="translate(1205.8 129.5) rotate(-180) scale(.9 -1)"><tspan x="0" y="0">R</tspan></text>
    </g>
  </g>
  <path class="st2" d="M1201.8,4.6c4.4-1.1,9.2-1.8,14.2-2.3,5.1-.5,9.5-.7,13.1-.7s9.2.5,13.6,1.6,8.3,2.9,11.8,5.5c3.3,2.6,6.1,6.4,8.2,11.1,2.1,4.7,3.2,10.5,3.2,17.5,0,10.2-1.7,18.5-5.1,25-3.3,6.5-8,10.8-14,13.2l6.5,5.8,20.8,48.3h-23.4l-19.7-49.7-8.7-2.4v52.1h-20.4V4.6h-.2,0ZM1222.2,61.9h7c5.1,0,8.9-1.7,11.5-5.2s3.9-8.8,3.9-16-1.1-9.9-3.3-13.2c-2.2-3.4-5.5-5.2-10.1-5.2s-3.3,0-5,.1-2.9.4-3.9.7v38.6h0v.2Z"/>
  <g class="st0">
    <g class="st1">
      <text class="st3" transform="translate(1205.5 140.3) rotate(-180) scale(.9 1)"><tspan x="0" y="0">R</tspan></text>
    </g>
  </g>
  <path class="st2" d="M1201.4,265.2c4.4,1.1,9.2,1.8,14.2,2.3,5.1.5,9.5.7,13.1.7s9.2-.5,13.6-1.6,8.3-2.9,11.8-5.5c3.3-2.6,6.1-6.4,8.2-11.1,2.1-4.7,3.2-10.5,3.2-17.5,0-10.2-1.7-18.5-5.1-25-3.3-6.5-8-10.8-14-13.2l6.5-5.8,20.8-48.3h-23.4l-19.7,49.7-8.7,2.4v-52.1h-20.4v124.9h-.2,0ZM1221.8,207.8h7c5.1,0,8.9,1.7,11.5,5.2s3.9,8.8,3.9,16-1.1,9.9-3.3,13.2c-2.2,3.4-5.5,5.2-10.1,5.2s-3.3,0-5-.1-2.9-.4-3.9-.7v-38.6h0v-.2Z"/>
  <g class="st0">
    <g class="st1">
      <text class="st3" transform="translate(1366.8 129.3) rotate(-180) scale(.9 -1)"><tspan x="0" y="0">R</tspan></text>
    </g>
  </g>
  <path class="st2" d="M1362.8,4.5c4.4-1.1,9.2-1.8,14.2-2.3,5.1-.5,9.5-.7,13.1-.7s9.2.5,13.6,1.6,8.3,2.9,11.8,5.5c3.3,2.6,6.1,6.4,8.2,11.1s3.2,10.5,3.2,17.5c0,10.2-1.7,18.5-5.1,25-3.4,6.5-8,10.8-14,13.2l6.5,5.8,20.8,48.3h-23.4l-19.7-49.7-8.7-2.4v52.1h-20.4V4.5h-.2,0ZM1383.2,61.8h7c5.1,0,8.9-1.7,11.5-5.2s3.9-8.8,3.9-16-1.1-9.9-3.3-13.2c-2.2-3.4-5.5-5.2-10.1-5.2s-3.3,0-5,.1-2.9.4-3.9.7v38.6h0v.2Z"/>
  <g class="st0">
    <g class="st1">
      <text class="st3" transform="translate(1366.5 140.2) rotate(-180) scale(.9 1)"><tspan x="0" y="0">R</tspan></text>
    </g>
  </g>
  <path class="st2" d="M1362.4,265c4.4,1.1,9.2,1.8,14.2,2.3,5.1.5,9.5.7,13.1.7s9.2-.5,13.6-1.6,8.3-2.9,11.8-5.5c3.3-2.6,6.1-6.4,8.2-11.1,2.1-4.7,3.2-10.5,3.2-17.5,0-10.2-1.7-18.5-5.1-25-3.3-6.5-8-10.8-14-13.2l6.5-5.8,20.8-48.3h-23.4l-19.7,49.7-8.7,2.4v-52.1h-20.4v124.9h-.2,0ZM1382.8,207.7h7c5.1,0,8.9,1.7,11.5,5.2s3.9,8.8,3.9,16-1.1,9.9-3.3,13.2c-2.2,3.4-5.5,5.2-10.1,5.2s-3.3,0-5-.1-2.9-.4-3.9-.7v-38.6h0v-.2Z"/>
  <g class="st0">
    <g class="st1">
      <text class="st3" transform="translate(1527.7 129.1) rotate(-180) scale(.9 -1)"><tspan x="0" y="0">R</tspan></text>
    </g>
  </g>
  <path class="st2" d="M1523.7,4.3c4.4-1.1,9.2-1.8,14.2-2.3,5.1-.5,9.5-.7,13.1-.7s9.2.5,13.6,1.6,8.3,2.9,11.8,5.5c3.3,2.6,6.1,6.4,8.2,11.1s3.2,10.5,3.2,17.5c0,10.2-1.7,18.5-5.1,25-3.3,6.5-8,10.8-14,13.2l6.5,5.8,20.8,48.3h-23.4l-19.7-49.7-8.7-2.4v52.1h-20.4V4.3h-.2,0ZM1544.1,61.6h7c5.1,0,8.9-1.7,11.5-5.2s3.9-8.8,3.9-16-1.1-9.9-3.3-13.2c-2.2-3.4-5.5-5.2-10.1-5.2s-3.3,0-5,.1-2.9.4-3.9.7v38.6h0v.2Z"/>
  <g class="st0">
    <g class="st1">
      <text class="st3" transform="translate(1527.3 140) rotate(-180) scale(.9 1)"><tspan x="0" y="0">R</tspan></text>
    </g>
  </g>
  <path class="st2" d="M1523.3,264.8c4.4,1.1,9.2,1.8,14.2,2.3,5.1.5,9.5.7,13.1.7s9.2-.5,13.6-1.6,8.3-2.9,11.8-5.5c3.3-2.6,6.1-6.4,8.2-11.1,2.1-4.7,3.2-10.5,3.2-17.5,0-10.2-1.7-18.5-5.1-25s-8-10.8-14-13.2l6.5-5.8,20.8-48.3h-23.4l-19.7,49.7-8.7,2.4v-52.1h-20.4v124.9h-.2,0ZM1543.7,207.5h7c5.1,0,8.9,1.7,11.5,5.2s3.9,8.8,3.9,16-1.1,9.9-3.3,13.2c-2.2,3.4-5.5,5.2-10.1,5.2s-3.3,0-5-.1-2.9-.4-3.9-.7v-38.6h0v-.2Z"/>
  <g class="st0">
    <g class="st1">
      <text class="st3" transform="translate(1690.1 128.9) rotate(-180) scale(.9 -1)"><tspan x="0" y="0">R</tspan></text>
    </g>
  </g>
  <path class="st2" d="M1686.1,4.1c4.4-1.1,9.2-1.8,14.2-2.3,5.1-.5,9.5-.7,13.1-.7s9.2.5,13.6,1.6,8.3,2.9,11.8,5.5c3.3,2.6,6.1,6.4,8.2,11.1,2.1,4.7,3.2,10.5,3.2,17.5,0,10.2-1.7,18.5-5.1,25-3.3,6.5-8,10.8-14,13.2l6.5,5.8,20.8,48.3h-23.4l-19.7-49.7-8.7-2.4v52.1h-20.4V4.1h-.2,0ZM1706.4,61.4h7c5.1,0,8.9-1.7,11.5-5.2s3.9-8.8,3.9-16-1.1-9.9-3.3-13.2c-2.2-3.4-5.5-5.2-10.1-5.2s-3.3,0-5,.1-2.9.4-3.9.7v38.6h0v.2Z"/>
  <g class="st0">
    <g class="st1">
      <text class="st3" transform="translate(1689.7 139.8) rotate(-180) scale(.9 1)"><tspan x="0" y="0">R</tspan></text>
    </g>
  </g>
  <path class="st2" d="M1685.7,264.6c4.4,1.1,9.2,1.8,14.2,2.3,5.1.5,9.5.7,13.1.7s9.2-.5,13.6-1.6,8.3-2.9,11.8-5.5c3.3-2.6,6.1-6.4,8.2-11.1,2.1-4.7,3.2-10.5,3.2-17.5,0-10.2-1.7-18.5-5.1-25s-8-10.8-14-13.2l6.5-5.8,20.8-48.3h-23.4l-19.7,49.7-8.7,2.4v-52.1h-20.4v124.9h-.2,0ZM1706.1,207.3h7c5.1,0,8.9,1.7,11.5,5.2s3.9,8.8,3.9,16-1.1,9.9-3.3,13.2c-2.2,3.4-5.5,5.2-10.1,5.2s-3.3,0-5-.1-2.9-.4-3.9-.7v-38.6h0v-.2Z"/>
  <g class="st0">
    <g class="st1">
      <text class="st3" transform="translate(1851.1 128.7) rotate(-180) scale(.9 -1)"><tspan x="0" y="0">R</tspan></text>
    </g>
  </g>
  <path class="st2" d="M1847.1,3.9c4.4-1.1,9.2-1.8,14.2-2.3,5.1-.5,9.5-.7,13.1-.7s9.2.5,13.6,1.6,8.3,2.9,11.8,5.5c3.3,2.6,6.1,6.4,8.2,11.1,2.1,4.7,3.2,10.5,3.2,17.5,0,10.2-1.7,18.5-5.1,25-3.3,6.5-8,10.8-14,13.2l6.5,5.8,20.8,48.3h-23.4l-19.7-49.7-8.7-2.4v52.1h-20.4V3.9h-.2,0ZM1867.4,61.2h7c5.1,0,8.9-1.7,11.5-5.2s3.9-8.8,3.9-16-1.1-9.9-3.3-13.2c-2.2-3.4-5.5-5.2-10.1-5.2s-3.3,0-5,.1-2.9.4-3.9.7v38.6h0v.2Z"/>
  <g class="st0">
    <g class="st1">
      <text class="st3" transform="translate(1850.7 139.6) rotate(-180) scale(.9 1)"><tspan x="0" y="0">R</tspan></text>
    </g>
  </g>
  <path class="st2" d="M1846.7,264.4c4.4,1.1,9.2,1.8,14.2,2.3,5.1.5,9.5.7,13.1.7s9.2-.5,13.6-1.6,8.3-2.9,11.8-5.5c3.3-2.6,6.1-6.4,8.2-11.1,2.1-4.7,3.2-10.5,3.2-17.5,0-10.2-1.7-18.5-5.1-25s-8-10.8-14-13.2l6.5-5.8,20.8-48.3h-23.4l-19.7,49.7-8.7,2.4v-52.1h-20.4v124.9h-.2,0ZM1867.1,207.1h7c5.1,0,8.9,1.7,11.5,5.2s3.9,8.8,3.9,16-1.1,9.9-3.3,13.2c-2.2,3.4-5.5,5.2-10.1,5.2s-3.3,0-5-.1-2.9-.4-3.9-.7v-38.6h0v-.2Z"/>
  <g class="st0">
    <g class="st1">
      <text class="st3" transform="translate(1044 400.4) rotate(-180) scale(.9 -1)"><tspan x="0" y="0">R</tspan></text>
    </g>
  </g>
  <path class="st2" d="M1040,275.6c4.4-1.1,9.2-1.8,14.2-2.3,5.1-.5,9.5-.7,13.1-.7s9.2.5,13.6,1.6,8.3,2.9,11.8,5.5c3.3,2.6,6.1,6.4,8.2,11.1s3.2,10.5,3.2,17.5c0,10.2-1.7,18.5-5.1,25s-8,10.8-14,13.2l6.5,5.8,20.8,48.3h-23.4l-19.7-49.7-8.7-2.4v52.1h-20.4v-124.9h-.2,0ZM1060.4,332.9h7c5.1,0,8.9-1.7,11.5-5.2s3.9-8.8,3.9-16-1.1-9.9-3.3-13.2c-2.2-3.4-5.5-5.2-10.1-5.2s-3.3,0-5,.1-2.9.4-3.9.7v38.6h0v.2Z"/>
  <g class="st0">
    <g class="st1">
      <text class="st3" transform="translate(1043.6 411.3) rotate(-180) scale(.9 1)"><tspan x="0" y="0">R</tspan></text>
    </g>
  </g>
  <path class="st2" d="M1039.6,536.1c4.4,1.1,9.2,1.8,14.2,2.3,5.1.5,9.5.7,13.1.7s9.2-.5,13.6-1.6,8.3-2.9,11.8-5.5c3.3-2.6,6.1-6.4,8.2-11.1,2.1-4.7,3.2-10.5,3.2-17.5,0-10.2-1.7-18.5-5.1-25-3.3-6.5-8-10.8-14-13.2l6.5-5.8,20.8-48.3h-23.4l-19.7,49.7-8.7,2.4v-52.1h-20.4v124.9h-.2,0ZM1060,478.8h7c5.1,0,8.9,1.7,11.5,5.2s3.9,8.8,3.9,16-1.1,9.9-3.3,13.2c-2.2,3.4-5.5,5.2-10.1,5.2s-3.3,0-5,0-2.9-.4-3.9-.7v-38.6h0v-.2Z"/>
  <g class="st0">
    <g class="st1">
      <text class="st3" transform="translate(1206.4 400.2) rotate(-180) scale(.9 -1)"><tspan x="0" y="0">R</tspan></text>
    </g>
  </g>
  <path class="st2" d="M1202.4,275.4c4.4-1.1,9.2-1.8,14.2-2.3,5.1-.5,9.5-.7,13.1-.7s9.2.5,13.6,1.6,8.3,2.9,11.8,5.5c3.3,2.6,6.1,6.4,8.2,11.1s3.2,10.5,3.2,17.5c0,10.2-1.7,18.5-5.1,25s-8,10.8-14,13.2l6.5,5.8,20.8,48.3h-23.4l-19.7-49.7-8.7-2.4v52.1h-20.4v-124.9h-.2,0ZM1222.7,332.7h7c5.1,0,8.9-1.7,11.5-5.2s3.9-8.8,3.9-16-1.1-9.9-3.3-13.2c-2.2-3.4-5.5-5.2-10.1-5.2s-3.3,0-5,.1-2.9.4-3.9.7v38.6h0v.2Z"/>
  <g class="st0">
    <g class="st1">
      <text class="st3" transform="translate(1206 411.1) rotate(-180) scale(.9 1)"><tspan x="0" y="0">R</tspan></text>
    </g>
  </g>
  <path class="st2" d="M1202,535.9c4.4,1.1,9.2,1.8,14.2,2.3,5.1.5,9.5.7,13.1.7s9.2-.5,13.6-1.6,8.3-2.9,11.8-5.5c3.3-2.6,6.1-6.4,8.2-11.1,2.1-4.7,3.2-10.5,3.2-17.5,0-10.2-1.7-18.5-5.1-25-3.3-6.5-8-10.8-14-13.2l6.5-5.8,20.8-48.3h-23.4l-19.7,49.7-8.7,2.4v-52.1h-20.4v124.9h-.2,0ZM1222.4,478.6h7c5.1,0,8.9,1.7,11.5,5.2s3.9,8.8,3.9,16-1.1,9.9-3.3,13.2c-2.2,3.4-5.5,5.2-10.1,5.2s-3.3,0-5,0-2.9-.4-3.9-.7v-38.6h0v-.2Z"/>
  <g class="st0">
    <g class="st1">
      <text class="st3" transform="translate(1367.4 400) rotate(-180) scale(.9 -1)"><tspan x="0" y="0">R</tspan></text>
    </g>
  </g>
  <path class="st2" d="M1363.3,275.2c4.4-1.1,9.2-1.8,14.2-2.3,5.1-.5,9.5-.7,13.1-.7s9.2.5,13.6,1.6,8.3,2.9,11.8,5.5c3.3,2.6,6.1,6.4,8.2,11.1s3.2,10.5,3.2,17.5c0,10.2-1.7,18.5-5.1,25-3.3,6.5-8,10.8-14,13.2l6.5,5.8,20.8,48.3h-23.4l-19.7-49.7-8.7-2.4v52.1h-20.4v-124.9h-.2,0ZM1383.7,332.5h7c5.1,0,8.9-1.7,11.5-5.2s3.9-8.8,3.9-16-1.1-9.9-3.3-13.2c-2.2-3.4-5.5-5.2-10.1-5.2s-3.3,0-5,.1-2.9.4-3.9.7v38.6h0v.2Z"/>
  <g class="st0">
    <g class="st1">
      <text class="st3" transform="translate(1367 410.9) rotate(-180) scale(.9 1)"><tspan x="0" y="0">R</tspan></text>
    </g>
  </g>
  <path class="st2" d="M1363,535.7c4.4,1.1,9.2,1.8,14.2,2.3,5.1.5,9.5.7,13.1.7s9.2-.5,13.6-1.6,8.3-2.9,11.8-5.5c3.3-2.6,6.1-6.4,8.2-11.1,2.1-4.7,3.2-10.5,3.2-17.5,0-10.2-1.7-18.5-5.1-25s-8-10.8-14-13.2l6.5-5.8,20.8-48.3h-23.4l-19.7,49.7-8.7,2.4v-52.1h-20.4v124.9h-.2,0ZM1383.3,478.4h7c5.1,0,8.9,1.7,11.5,5.2s3.9,8.8,3.9,16-1.1,9.9-3.3,13.2c-2.2,3.4-5.5,5.2-10.1,5.2s-3.3,0-5,0-2.9-.4-3.9-.7v-38.6h0v-.2Z"/>
  <g class="st0">
    <g class="st1">
      <text class="st3" transform="translate(1528.3 399.9) rotate(-180) scale(.9 -1)"><tspan x="0" y="0">R</tspan></text>
    </g>
  </g>
  <path class="st2" d="M1524.2,275.1c4.4-1.1,9.2-1.8,14.2-2.3,5.1-.5,9.5-.7,13.1-.7s9.2.5,13.6,1.6,8.3,2.9,11.8,5.5c3.3,2.6,6.1,6.4,8.2,11.1s3.2,10.5,3.2,17.5c0,10.2-1.7,18.5-5.1,25-3.3,6.5-8,10.8-14,13.2l6.5,5.8,20.8,48.3h-23.4l-19.7-49.7-8.7-2.4v52.1h-20.4v-124.9h-.2,0ZM1544.6,332.4h7c5.1,0,8.9-1.7,11.5-5.2s3.9-8.8,3.9-16-1.1-9.9-3.3-13.2c-2.2-3.4-5.5-5.2-10.1-5.2s-3.3,0-5,.1-2.9.4-3.9.7v38.6h0v.2Z"/>
  <g class="st0">
    <g class="st1">
      <text class="st3" transform="translate(1527.9 410.8) rotate(-180) scale(.9 1)"><tspan x="0" y="0">R</tspan></text>
    </g>
  </g>
  <path class="st2" d="M1523.9,535.6c4.4,1.1,9.2,1.8,14.2,2.3,5.1.5,9.5.7,13.1.7s9.2-.5,13.6-1.6,8.3-2.9,11.8-5.5c3.3-2.6,6.1-6.4,8.2-11.1,2.1-4.7,3.2-10.5,3.2-17.5,0-10.2-1.7-18.5-5.1-25-3.3-6.5-8-10.8-14-13.2l6.5-5.8,20.8-48.3h-23.4l-19.7,49.7-8.7,2.4v-52.1h-20.4v124.9h-.2,0ZM1544.2,478.3h7c5.1,0,8.9,1.7,11.5,5.2s3.9,8.8,3.9,16-1.1,9.9-3.3,13.2c-2.2,3.4-5.5,5.2-10.1,5.2s-3.3,0-5,0-2.9-.4-3.9-.7v-38.6h0v-.2Z"/>
  <g class="st0">
    <g class="st1">
      <text class="st3" transform="translate(1690.6 399.6) rotate(-180) scale(.9 -1)"><tspan x="0" y="0">R</tspan></text>
    </g>
  </g>
  <path class="st2" d="M1686.6,274.8c4.4-1.1,9.2-1.8,14.2-2.3,5.1-.5,9.5-.7,13.1-.7s9.2.5,13.6,1.6,8.3,2.9,11.8,5.5c3.3,2.6,6.1,6.4,8.2,11.1s3.2,10.5,3.2,17.5c0,10.2-1.7,18.5-5.1,25s-8,10.8-14,13.2l6.5,5.8,20.8,48.3h-23.4l-19.7-49.7-8.7-2.4v52.1h-20.4v-124.9h-.2,0ZM1707,332.1h7c5.1,0,8.9-1.7,11.5-5.2s3.9-8.8,3.9-16-1.1-9.9-3.3-13.2c-2.2-3.4-5.5-5.2-10.1-5.2s-3.3,0-5,.1-2.9.4-3.9.7v38.6h0v.2Z"/>
  <g class="st0">
    <g class="st1">
      <text class="st3" transform="translate(1690.2 410.5) rotate(-180) scale(.9 1)"><tspan x="0" y="0">R</tspan></text>
    </g>
  </g>
  <path class="st2" d="M1686.2,535.3c4.4,1.1,9.2,1.8,14.2,2.3,5.1.5,9.5.7,13.1.7s9.2-.5,13.6-1.6,8.3-2.9,11.8-5.5c3.3-2.6,6.1-6.4,8.2-11.1,2.1-4.7,3.2-10.5,3.2-17.5,0-10.2-1.7-18.5-5.1-25-3.3-6.5-8-10.8-14-13.2l6.5-5.8,20.8-48.3h-23.4l-19.7,49.7-8.7,2.4v-52.1h-20.4v124.9h-.2,0ZM1706.6,478h7c5.1,0,8.9,1.7,11.5,5.2s3.9,8.8,3.9,16-1.1,9.9-3.3,13.2c-2.2,3.4-5.5,5.2-10.1,5.2s-3.3,0-5,0-2.9-.4-3.9-.7v-38.6h0v-.2Z"/>
  <g class="st0">
    <g class="st1">
      <text class="st3" transform="translate(1851.6 399.5) rotate(-180) scale(.9 -1)"><tspan x="0" y="0">R</tspan></text>
    </g>
  </g>
  <path class="st2" d="M1847.6,274.6c4.4-1.1,9.2-1.8,14.2-2.3,5.1-.5,9.5-.7,13.1-.7s9.2.5,13.6,1.6,8.3,2.9,11.8,5.5c3.3,2.6,6.1,6.4,8.2,11.1s3.2,10.5,3.2,17.5c0,10.2-1.7,18.5-5.1,25s-8,10.8-14,13.2l6.5,5.8,20.8,48.3h-23.4l-19.7-49.7-8.7-2.4v52.1h-20.4v-124.9h-.2,0ZM1868,332h7c5.1,0,8.9-1.7,11.5-5.2s3.9-8.8,3.9-16-1.1-9.9-3.3-13.2c-2.2-3.4-5.5-5.2-10.1-5.2s-3.3,0-5,.1-2.9.4-3.9.7v38.6h0v.2Z"/>
  <g class="st0">
    <g class="st1">
      <text class="st3" transform="translate(1851.2 410.3) rotate(-180) scale(.9 1)"><tspan x="0" y="0">R</tspan></text>
    </g>
  </g>
  <path class="st2" d="M1847.2,535.2c4.4,1.1,9.2,1.8,14.2,2.3,5.1.5,9.5.7,13.1.7s9.2-.5,13.6-1.6,8.3-2.9,11.8-5.5c3.3-2.6,6.1-6.4,8.2-11.1,2.1-4.7,3.2-10.5,3.2-17.5,0-10.2-1.7-18.5-5.1-25-3.3-6.5-8-10.8-14-13.2l6.5-5.8,20.8-48.3h-23.4l-19.7,49.7-8.7,2.4v-52.1h-20.4v124.9h-.2,0ZM1867.6,477.9h7c5.1,0,8.9,1.7,11.5,5.2s3.9,8.8,3.9,16-1.1,9.9-3.3,13.2c-2.2,3.4-5.5,5.2-10.1,5.2s-3.3,0-5,0-2.9-.4-3.9-.7v-38.6h0v-.2Z"/>
  <g class="st0">
    <g class="st1">
      <text class="st3" transform="translate(1043.5 668.4) rotate(-180) scale(.9 -1)"><tspan x="0" y="0">R</tspan></text>
    </g>
  </g>
  <path class="st2" d="M1039.5,543.6c4.4-1.1,9.2-1.8,14.2-2.3,5.1-.5,9.5-.7,13.1-.7s9.2.5,13.6,1.6,8.3,2.9,11.8,5.5c3.3,2.6,6.1,6.4,8.2,11.1,2.1,4.7,3.2,10.5,3.2,17.5,0,10.2-1.7,18.5-5.1,25-3.3,6.5-8,10.8-14,13.2l6.5,5.8,20.8,48.3h-23.4l-19.7-49.7-8.7-2.4v52.1h-20.4v-124.9h-.2,0ZM1059.9,600.9h7c5.1,0,8.9-1.7,11.5-5.2s3.9-8.8,3.9-16-1.1-9.9-3.3-13.2c-2.2-3.4-5.5-5.2-10.1-5.2s-3.3,0-5,0-2.9.4-3.9.7v38.6h0v.2Z"/>
  <g class="st0">
    <g class="st1">
      <text class="st3" transform="translate(1043.1 679.3) rotate(-180) scale(.9 1)"><tspan x="0" y="0">R</tspan></text>
    </g>
  </g>
  <path class="st2" d="M1039.1,804.1c4.4,1.1,9.2,1.8,14.2,2.3,5.1.5,9.5.7,13.1.7s9.2-.5,13.6-1.6,8.3-2.9,11.8-5.5c3.3-2.6,6.1-6.4,8.2-11.1,2.1-4.7,3.2-10.5,3.2-17.5,0-10.2-1.7-18.5-5.1-25s-8-10.8-14-13.2l6.5-5.8,20.8-48.3h-23.4l-19.7,49.7-8.7,2.4v-52.1h-20.4v124.9h-.2,0ZM1059.5,746.8h7c5.1,0,8.9,1.7,11.5,5.2s3.9,8.8,3.9,16-1.1,9.9-3.3,13.2c-2.2,3.4-5.5,5.2-10.1,5.2s-3.3,0-5,0-2.9-.4-3.9-.7v-38.6h0v-.2Z"/>
  <g class="st0">
    <g class="st1">
      <text class="st3" transform="translate(1205.9 668.2) rotate(-180) scale(.9 -1)"><tspan x="0" y="0">R</tspan></text>
    </g>
  </g>
  <path class="st2" d="M1201.8,543.4c4.4-1.1,9.2-1.8,14.2-2.3,5.1-.5,9.5-.7,13.1-.7s9.2.5,13.6,1.6,8.3,2.9,11.8,5.5c3.3,2.6,6.1,6.4,8.2,11.1,2.1,4.7,3.2,10.5,3.2,17.5,0,10.2-1.7,18.5-5.1,25-3.3,6.5-8,10.8-14,13.2l6.5,5.8,20.8,48.3h-23.4l-19.7-49.7-8.7-2.4v52.1h-20.4v-124.9h-.2,0ZM1222.2,600.7h7c5.1,0,8.9-1.7,11.5-5.2s3.9-8.8,3.9-16-1.1-9.9-3.3-13.2c-2.2-3.4-5.5-5.2-10.1-5.2s-3.3,0-5,0-2.9.4-3.9.7v38.6h0v.2Z"/>
  <g class="st0">
    <g class="st1">
      <text class="st3" transform="translate(1205.5 679.1) rotate(-180) scale(.9 1)"><tspan x="0" y="0">R</tspan></text>
    </g>
  </g>
  <path class="st2" d="M1201.5,803.9c4.4,1.1,9.2,1.8,14.2,2.3,5.1.5,9.5.7,13.1.7s9.2-.5,13.6-1.6,8.3-2.9,11.8-5.5c3.3-2.6,6.1-6.4,8.2-11.1,2.1-4.7,3.2-10.5,3.2-17.5,0-10.2-1.7-18.5-5.1-25s-8-10.8-14-13.2l6.5-5.8,20.8-48.3h-23.4l-19.7,49.7-8.7,2.4v-52.1h-20.4v124.9h-.2,0ZM1221.8,746.6h7c5.1,0,8.9,1.7,11.5,5.2s3.9,8.8,3.9,16-1.1,9.9-3.3,13.2c-2.2,3.4-5.5,5.2-10.1,5.2s-3.3,0-5,0-2.9-.4-3.9-.7v-38.6h0v-.2Z"/>
  <g class="st0">
    <g class="st1">
      <text class="st3" transform="translate(1366.9 668) rotate(-180) scale(.9 -1)"><tspan x="0" y="0">R</tspan></text>
    </g>
  </g>
  <path class="st2" d="M1362.8,543.2c4.4-1.1,9.2-1.8,14.2-2.3,5.1-.5,9.5-.7,13.1-.7s9.2.5,13.6,1.6,8.3,2.9,11.8,5.5c3.3,2.6,6.1,6.4,8.2,11.1,2.1,4.7,3.2,10.5,3.2,17.5,0,10.2-1.7,18.5-5.1,25-3.3,6.5-8,10.8-14,13.2l6.5,5.8,20.8,48.3h-23.4l-19.7-49.7-8.7-2.4v52.1h-20.4v-124.9h-.2,0ZM1383.2,600.5h7c5.1,0,8.9-1.7,11.5-5.2s3.9-8.8,3.9-16-1.1-9.9-3.3-13.2c-2.2-3.4-5.5-5.2-10.1-5.2s-3.3,0-5,0-2.9.4-3.9.7v38.6h0v.2Z"/>
  <g class="st0">
    <g class="st1">
      <text class="st3" transform="translate(1366.5 678.9) rotate(-180) scale(.9 1)"><tspan x="0" y="0">R</tspan></text>
    </g>
  </g>
  <path class="st2" d="M1362.5,803.7c4.4,1.1,9.2,1.8,14.2,2.3,5.1.5,9.5.7,13.1.7s9.2-.5,13.6-1.6,8.3-2.9,11.8-5.5c3.3-2.6,6.1-6.4,8.2-11.1,2.1-4.7,3.2-10.5,3.2-17.5,0-10.2-1.7-18.5-5.1-25-3.3-6.5-8-10.8-14-13.2l6.5-5.8,20.8-48.3h-23.4l-19.7,49.7-8.7,2.4v-52.1h-20.4v124.9h-.2,0ZM1382.8,746.4h7c5.1,0,8.9,1.7,11.5,5.2s3.9,8.8,3.9,16-1.1,9.9-3.3,13.2c-2.2,3.4-5.5,5.2-10.1,5.2s-3.3,0-5,0-2.9-.4-3.9-.7v-38.6h0v-.2Z"/>
  <g class="st0">
    <g class="st1">
      <text class="st3" transform="translate(1527.7 667.9) rotate(-180) scale(.9 -1)"><tspan x="0" y="0">R</tspan></text>
    </g>
  </g>
  <path class="st2" d="M1523.7,543.1c4.4-1.1,9.2-1.8,14.2-2.3,5.1-.5,9.5-.7,13.1-.7s9.2.5,13.6,1.6,8.3,2.9,11.8,5.5c3.3,2.6,6.1,6.4,8.2,11.1,2.1,4.7,3.2,10.5,3.2,17.5,0,10.2-1.7,18.5-5.1,25-3.3,6.5-8,10.8-14,13.2l6.5,5.8,20.8,48.3h-23.4l-19.7-49.7-8.7-2.4v52.1h-20.4v-124.9h-.2,0ZM1544.1,600.4h7c5.1,0,8.9-1.7,11.5-5.2s3.9-8.8,3.9-16-1.1-9.9-3.3-13.2c-2.2-3.4-5.5-5.2-10.1-5.2s-3.3,0-5,0-2.9.4-3.9.7v38.6h0v.2Z"/>
  <g class="st0">
    <g class="st1">
      <text class="st3" transform="translate(1527.4 678.8) rotate(-180) scale(.9 1)"><tspan x="0" y="0">R</tspan></text>
    </g>
  </g>
  <path class="st2" d="M1523.4,803.6c4.4,1.1,9.2,1.8,14.2,2.3,5.1.5,9.5.7,13.1.7s9.2-.5,13.6-1.6,8.3-2.9,11.8-5.5c3.3-2.6,6.1-6.4,8.2-11.1,2.1-4.7,3.2-10.5,3.2-17.5,0-10.2-1.7-18.5-5.1-25s-8-10.8-14-13.2l6.5-5.8,20.8-48.3h-23.4l-19.7,49.7-8.7,2.4v-52.1h-20.4v124.9h-.2,0ZM1543.7,746.3h7c5.1,0,8.9,1.7,11.5,5.2s3.9,8.8,3.9,16-1.1,9.9-3.3,13.2c-2.2,3.4-5.5,5.2-10.1,5.2s-3.3,0-5,0-2.9-.4-3.9-.7v-38.6h0v-.2Z"/>
  <g class="st0">
    <g class="st1">
      <text class="st3" transform="translate(1690.1 667.7) rotate(-180) scale(.9 -1)"><tspan x="0" y="0">R</tspan></text>
    </g>
  </g>
  <path class="st2" d="M1686.1,542.8c4.4-1.1,9.2-1.8,14.2-2.3,5.1-.5,9.5-.7,13.1-.7s9.2.5,13.6,1.6,8.3,2.9,11.8,5.5c3.3,2.6,6.1,6.4,8.2,11.1,2.1,4.7,3.2,10.5,3.2,17.5,0,10.2-1.7,18.5-5.1,25-3.3,6.5-8,10.8-14,13.2l6.5,5.8,20.8,48.3h-23.4l-19.7-49.7-8.7-2.4v52.1h-20.4v-124.9h-.2,0ZM1706.5,600.1h7c5.1,0,8.9-1.7,11.5-5.2s3.9-8.8,3.9-16-1.1-9.9-3.3-13.2c-2.2-3.4-5.5-5.2-10.1-5.2s-3.3,0-5,0-2.9.4-3.9.7v38.6h0v.2Z"/>
  <g class="st0">
    <g class="st1">
      <text class="st3" transform="translate(1689.7 678.5) rotate(-180) scale(.9 1)"><tspan x="0" y="0">R</tspan></text>
    </g>
  </g>
  <path class="st2" d="M1685.7,803.4c4.4,1.1,9.2,1.8,14.2,2.3,5.1.5,9.5.7,13.1.7s9.2-.5,13.6-1.6,8.3-2.9,11.8-5.5c3.3-2.6,6.1-6.4,8.2-11.1,2.1-4.7,3.2-10.5,3.2-17.5,0-10.2-1.7-18.5-5.1-25-3.3-6.5-8-10.8-14-13.2l6.5-5.8,20.8-48.3h-23.4l-19.7,49.7-8.7,2.4v-52.1h-20.4v124.9h-.2,0ZM1706.1,746h7c5.1,0,8.9,1.7,11.5,5.2s3.9,8.8,3.9,16-1.1,9.9-3.3,13.2c-2.2,3.4-5.5,5.2-10.1,5.2s-3.3,0-5,0-2.9-.4-3.9-.7v-38.6h0v-.2Z"/>
  <g class="st0">
    <g class="st1">
      <text class="st3" transform="translate(1851.1 667.5) rotate(-180) scale(.9 -1)"><tspan x="0" y="0">R</tspan></text>
    </g>
  </g>
  <path class="st2" d="M1847.1,542.6c4.4-1.1,9.2-1.8,14.2-2.3,5.1-.5,9.5-.7,13.1-.7s9.2.5,13.6,1.6,8.3,2.9,11.8,5.5c3.3,2.6,6.1,6.4,8.2,11.1,2.1,4.7,3.2,10.5,3.2,17.5,0,10.2-1.7,18.5-5.1,25-3.3,6.5-8,10.8-14,13.2l6.5,5.8,20.8,48.3h-23.4l-19.7-49.7-8.7-2.4v52.1h-20.4v-124.9h-.2,0ZM1867.4,600h7c5.1,0,8.9-1.7,11.5-5.2s3.9-8.8,3.9-16-1.1-9.9-3.3-13.2c-2.2-3.4-5.5-5.2-10.1-5.2s-3.3,0-5,0-2.9.4-3.9.7v38.6h0v.2Z"/>
  <g class="st0">
    <g class="st1">
      <text class="st3" transform="translate(1850.7 678.3) rotate(-180) scale(.9 1)"><tspan x="0" y="0">R</tspan></text>
    </g>
  </g>
  <path class="st2" d="M1846.7,803.2c4.4,1.1,9.2,1.8,14.2,2.3,5.1.5,9.5.7,13.1.7s9.2-.5,13.6-1.6,8.3-2.9,11.8-5.5c3.3-2.6,6.1-6.4,8.2-11.1,2.1-4.7,3.2-10.5,3.2-17.5,0-10.2-1.7-18.5-5.1-25-3.3-6.5-8-10.8-14-13.2l6.5-5.8,20.8-48.3h-23.4l-19.7,49.7-8.7,2.4v-52.1h-20.4v124.9h-.2,0ZM1867.1,745.9h7c5.1,0,8.9,1.7,11.5,5.2s3.9,8.8,3.9,16-1.1,9.9-3.3,13.2c-2.2,3.4-5.5,5.2-10.1,5.2s-3.3,0-5,0-2.9-.4-3.9-.7v-38.6h0v-.2Z"/>
  <g class="st0">
    <g class="st1">
      <text class="st3" transform="translate(1044 939.2) rotate(-180) scale(.9 -1)"><tspan x="0" y="0">R</tspan></text>
    </g>
  </g>
  <path class="st2" d="M1040,814.4c4.4-1.1,9.2-1.8,14.2-2.3,5.1-.5,9.5-.7,13.1-.7s9.2.5,13.6,1.6,8.3,2.9,11.8,5.5c3.3,2.6,6.1,6.4,8.2,11.1,2.1,4.7,3.2,10.5,3.2,17.5,0,10.2-1.7,18.5-5.1,25-3.3,6.5-8,10.8-14,13.2l6.5,5.8,20.8,48.3h-23.4l-19.7-49.7-8.7-2.4v52.1h-20.4v-124.9h-.2,0ZM1060.4,871.7h7c5.1,0,8.9-1.7,11.5-5.2s3.9-8.8,3.9-16-1.1-9.9-3.3-13.2c-2.2-3.4-5.5-5.2-10.1-5.2s-3.3,0-5,0-2.9.4-3.9.7v38.6h0v.2Z"/>
  <g class="st0">
    <g class="st1">
      <text class="st3" transform="translate(1043.7 950.1) rotate(-180) scale(.9 1)"><tspan x="0" y="0">R</tspan></text>
    </g>
  </g>
  <path class="st2" d="M1039.7,1074.9c4.4,1.1,9.2,1.8,14.2,2.3,5.1.5,9.5.7,13.1.7s9.2-.5,13.6-1.6,8.3-2.9,11.8-5.5c3.3-2.6,6.1-6.4,8.2-11.1s3.2-10.5,3.2-17.5c0-10.2-1.7-18.5-5.1-25s-8-10.8-14-13.2l6.5-5.8,20.8-48.3h-23.4l-19.7,49.7-8.7,2.4v-52.1h-20.4v124.9h-.2,0ZM1060,1017.6h7c5.1,0,8.9,1.7,11.5,5.2,2.6,3.5,3.9,8.8,3.9,16s-1.1,9.9-3.3,13.2c-2.2,3.4-5.5,5.2-10.1,5.2s-3.3,0-5,0-2.9-.4-3.9-.7v-38.6h0v-.2Z"/>
  <g class="st0">
    <g class="st1">
      <text class="st3" transform="translate(1206.4 938.9) rotate(-180) scale(.9 -1)"><tspan x="0" y="0">R</tspan></text>
    </g>
  </g>
  <path class="st2" d="M1202.4,814.1c4.4-1.1,9.2-1.8,14.2-2.3,5.1-.5,9.5-.7,13.1-.7s9.2.5,13.6,1.6,8.3,2.9,11.8,5.5c3.3,2.6,6.1,6.4,8.2,11.1,2.1,4.7,3.2,10.5,3.2,17.5,0,10.2-1.7,18.5-5.1,25s-8,10.8-14,13.2l6.5,5.8,20.8,48.3h-23.4l-19.7-49.7-8.7-2.4v52.1h-20.4v-124.9h-.2,0ZM1222.7,871.4h7c5.1,0,8.9-1.7,11.5-5.2s3.9-8.8,3.9-16-1.1-9.9-3.3-13.2c-2.2-3.4-5.5-5.2-10.1-5.2s-3.3,0-5,0-2.9.4-3.9.7v38.6h0v.2Z"/>
  <g class="st0">
    <g class="st1">
      <text class="st3" transform="translate(1206 949.8) rotate(-180) scale(.9 1)"><tspan x="0" y="0">R</tspan></text>
    </g>
  </g>
  <path class="st2" d="M1202,1074.6c4.4,1.1,9.2,1.8,14.2,2.3,5.1.5,9.5.7,13.1.7s9.2-.5,13.6-1.6,8.3-2.9,11.8-5.5c3.3-2.6,6.1-6.4,8.2-11.1s3.2-10.5,3.2-17.5c0-10.2-1.7-18.5-5.1-25s-8-10.8-14-13.2l6.5-5.8,20.8-48.3h-23.4l-19.7,49.7-8.7,2.4v-52.1h-20.4v124.9h-.2,0ZM1222.4,1017.3h7c5.1,0,8.9,1.7,11.5,5.2s3.9,8.8,3.9,16-1.1,9.9-3.3,13.2c-2.2,3.4-5.5,5.2-10.1,5.2s-3.3,0-5,0-2.9-.4-3.9-.7v-38.6h0v-.2Z"/>
  <g class="st0">
    <g class="st1">
      <text class="st3" transform="translate(1367.4 938.8) rotate(-180) scale(.9 -1)"><tspan x="0" y="0">R</tspan></text>
    </g>
  </g>
  <path class="st2" d="M1363.4,813.9c4.4-1.1,9.2-1.8,14.2-2.3,5.1-.5,9.5-.7,13.1-.7s9.2.5,13.6,1.6,8.3,2.9,11.8,5.5c3.3,2.6,6.1,6.4,8.2,11.1,2.1,4.7,3.2,10.5,3.2,17.5,0,10.2-1.7,18.5-5.1,25-3.3,6.5-8,10.8-14,13.2l6.5,5.8,20.8,48.3h-23.4l-19.7-49.7-8.7-2.4v52.1h-20.4v-124.9h-.2,0ZM1383.7,871.2h7c5.1,0,8.9-1.7,11.5-5.2s3.9-8.8,3.9-16-1.1-9.9-3.3-13.2c-2.2-3.4-5.5-5.2-10.1-5.2s-3.3,0-5,0-2.9.4-3.9.7v38.6h0v.2Z"/>
  <g class="st0">
    <g class="st1">
      <text class="st3" transform="translate(1367 949.6) rotate(-180) scale(.9 1)"><tspan x="0" y="0">R</tspan></text>
    </g>
  </g>
  <path class="st2" d="M1363,1074.5c4.4,1.1,9.2,1.8,14.2,2.3,5.1.5,9.5.7,13.1.7s9.2-.5,13.6-1.6,8.3-2.9,11.8-5.5c3.3-2.6,6.1-6.4,8.2-11.1s3.2-10.5,3.2-17.5c0-10.2-1.7-18.5-5.1-25s-8-10.8-14-13.2l6.5-5.8,20.8-48.3h-23.4l-19.7,49.7-8.7,2.4v-52.1h-20.4v124.9h-.2,0ZM1383.4,1017.2h7c5.1,0,8.9,1.7,11.5,5.2s3.9,8.8,3.9,16-1.1,9.9-3.3,13.2c-2.2,3.4-5.5,5.2-10.1,5.2s-3.3,0-5,0-2.9-.4-3.9-.7v-38.6h0v-.2Z"/>
  <g class="st0">
    <g class="st1">
      <text class="st3" transform="translate(1528.3 938.6) rotate(-180) scale(.9 -1)"><tspan x="0" y="0">R</tspan></text>
    </g>
  </g>
  <path class="st2" d="M1524.3,813.8c4.4-1.1,9.2-1.8,14.2-2.3,5.1-.5,9.5-.7,13.1-.7s9.2.5,13.6,1.6,8.3,2.9,11.8,5.5c3.3,2.6,6.1,6.4,8.2,11.1,2.1,4.7,3.2,10.5,3.2,17.5,0,10.2-1.7,18.5-5.1,25-3.3,6.5-8,10.8-14,13.2l6.5,5.8,20.8,48.3h-23.4l-19.7-49.7-8.7-2.4v52.1h-20.4v-124.9h-.2,0ZM1544.6,871.1h7c5.1,0,8.9-1.7,11.5-5.2s3.9-8.8,3.9-16-1.1-9.9-3.3-13.2c-2.2-3.4-5.5-5.2-10.1-5.2s-3.3,0-5,0-2.9.4-3.9.7v38.6h0v.2Z"/>
  <g class="st0">
    <g class="st1">
      <text class="st3" transform="translate(1527.9 949.5) rotate(-180) scale(.9 1)"><tspan x="0" y="0">R</tspan></text>
    </g>
  </g>
  <path class="st2" d="M1523.9,1074.3c4.4,1.1,9.2,1.8,14.2,2.3,5.1.5,9.5.7,13.1.7s9.2-.5,13.6-1.6,8.3-2.9,11.8-5.5c3.3-2.6,6.1-6.4,8.2-11.1s3.2-10.5,3.2-17.5c0-10.2-1.7-18.5-5.1-25-3.3-6.5-8-10.8-14-13.2l6.5-5.8,20.8-48.3h-23.4l-19.7,49.7-8.7,2.4v-52.1h-20.4v124.9h-.2,0ZM1544.3,1017h7c5.1,0,8.9,1.7,11.5,5.2,2.6,3.5,3.9,8.8,3.9,16s-1.1,9.9-3.3,13.2c-2.2,3.4-5.5,5.2-10.1,5.2s-3.3,0-5,0-2.9-.4-3.9-.7v-38.6h0v-.2Z"/>
  <g class="st0">
    <g class="st1">
      <text class="st3" transform="translate(1690.6 938.4) rotate(-180) scale(.9 -1)"><tspan x="0" y="0">R</tspan></text>
    </g>
  </g>
  <path class="st2" d="M1686.6,813.6c4.4-1.1,9.2-1.8,14.2-2.3,5.1-.5,9.5-.7,13.1-.7s9.2.5,13.6,1.6,8.3,2.9,11.8,5.5c3.3,2.6,6.1,6.4,8.2,11.1,2.1,4.7,3.2,10.5,3.2,17.5,0,10.2-1.7,18.5-5.1,25-3.3,6.5-8,10.8-14,13.2l6.5,5.8,20.8,48.3h-23.4l-19.7-49.7-8.7-2.4v52.1h-20.4v-124.9h-.2,0ZM1707,870.9h7c5.1,0,8.9-1.7,11.5-5.2s3.9-8.8,3.9-16-1.1-9.9-3.3-13.2c-2.2-3.4-5.5-5.2-10.1-5.2s-3.3,0-5,0-2.9.4-3.9.7v38.6h0v.2Z"/>
  <g class="st0">
    <g class="st1">
      <text class="st3" transform="translate(1690.3 949.3) rotate(-180) scale(.9 1)"><tspan x="0" y="0">R</tspan></text>
    </g>
  </g>
  <path class="st2" d="M1686.3,1074.1c4.4,1.1,9.2,1.8,14.2,2.3,5.1.5,9.5.7,13.1.7s9.2-.5,13.6-1.6,8.3-2.9,11.8-5.5c3.3-2.6,6.1-6.4,8.2-11.1s3.2-10.5,3.2-17.5c0-10.2-1.7-18.5-5.1-25s-8-10.8-14-13.2l6.5-5.8,20.8-48.3h-23.4l-19.7,49.7-8.7,2.4v-52.1h-20.4v124.9h-.2,0ZM1706.6,1016.8h7c5.1,0,8.9,1.7,11.5,5.2s3.9,8.8,3.9,16-1.1,9.9-3.3,13.2c-2.2,3.4-5.5,5.2-10.1,5.2s-3.3,0-5,0-2.9-.4-3.9-.7v-38.6h0v-.2Z"/>
  <g class="st0">
    <g class="st1">
      <text class="st3" transform="translate(1851.6 938.2) rotate(-180) scale(.9 -1)"><tspan x="0" y="0">R</tspan></text>
    </g>
  </g>
  <path class="st2" d="M1847.6,813.4c4.4-1.1,9.2-1.8,14.2-2.3,5.1-.5,9.5-.7,13.1-.7s9.2.5,13.6,1.6,8.3,2.9,11.8,5.5c3.3,2.6,6.1,6.4,8.2,11.1,2.1,4.7,3.2,10.5,3.2,17.5,0,10.2-1.7,18.5-5.1,25-3.3,6.5-8,10.8-14,13.2l6.5,5.8,20.8,48.3h-23.4l-19.7-49.7-8.7-2.4v52.1h-20.4v-124.9h-.2,0ZM1868,870.7h7c5.1,0,8.9-1.7,11.5-5.2s3.9-8.8,3.9-16-1.1-9.9-3.3-13.2c-2.2-3.4-5.5-5.2-10.1-5.2s-3.3,0-5,0-2.9.4-3.9.7v38.6h0v.2Z"/>
  <g class="st0">
    <g class="st1">
      <text class="st3" transform="translate(1851.3 949.1) rotate(-180) scale(.9 1)"><tspan x="0" y="0">R</tspan></text>
    </g>
  </g>
  <path class="st2" d="M1847.3,1073.9c4.4,1.1,9.2,1.8,14.2,2.3,5.1.5,9.5.7,13.1.7s9.2-.5,13.6-1.6,8.3-2.9,11.8-5.5c3.3-2.6,6.1-6.4,8.2-11.1s3.2-10.5,3.2-17.5c0-10.2-1.7-18.5-5.1-25-3.3-6.5-8-10.8-14-13.2l6.5-5.8,20.8-48.3h-23.4l-19.7,49.7-8.7,2.4v-52.1h-20.4v124.9h-.2,0ZM1867.6,1016.6h7c5.1,0,8.9,1.7,11.5,5.2,2.6,3.5,3.9,8.8,3.9,16s-1.1,9.9-3.3,13.2c-2.2,3.4-5.5,5.2-10.1,5.2s-3.3,0-5,0-2.9-.4-3.9-.7v-38.6h0v-.2Z"/>
</svg>