<?xml version="1.0" encoding="UTF-8"?>
<svg id="Layer_1" xmlns="http://www.w3.org/2000/svg" version="1.1" viewBox="0 0 400 288">
  <!-- Generator: Adobe Illustrator 29.2.1, SVG Export Plug-In . SVG Version: 2.1.0 Build 116)  -->
  <defs>
    <style>
      .st0 {
        fill: #fff;
      }

      .st1 {
        fill: #1b3fd7;
      }

      .st2 {
        fill: #2020ff;
      }
    </style>
  </defs>
  <path class="st2" d="M127.4,51.5c-.5,0-.2.3,1.1.2l.9-.4s-2,.2-2,.2Z"/>
  <path class="st2" d="M136,51.6c1.5-.2,3.2-.6,2.2-.9-1.5.4-1.8.3-3.4.8-1.3,0-2.2,0-2,0-.4,0-2,0-2.7.3,1.7.2,3.8,0,6-.3.5,0,0,.2,0,.2h-.1Z"/>
  <path class="st2" d="M260.4,63l-.8-.2c.2,0,.5,0,.8.2Z"/>
  <path class="st2" d="M333.1,88.8c-.5-.3-.7-.4-.8-.4.5.3.8.5.8.4Z"/>
  <path class="st2" d="M342.9,97.4c-.2-.2-.3-.4-.5-.6.2.2.4.5.5.6Z"/>
  <path class="st2" d="M260.4,63l2,.6c.2,0-1-.3-2-.6Z"/>
  <path class="st2" d="M153.3,50.3h-1.1,1.1Z"/>
  <path class="st2" d="M226.8,56.9h-1.1,1.2,0Z"/>
  <path class="st2" d="M200.7,53.8c.6,0,.8-.2,1.1-.3h-1.3l.2.2h0Z"/>
  <path class="st2" d="M159.2,51.4h-.7.7Z"/>
  <path class="st2" d="M245.3,60.2h.2-.2Z"/>
  <path class="st2" d="M123.5,55.9h0s.2,0,0,0Z"/>
  <path class="st2" d="M154,55.5h-.5.5Z"/>
  <path class="st2" d="M356.3,117.1h0c-.3-.5-.1-.2,0,0Z"/>
  <path class="st2" d="M206.7,233c2.5.2-4.1.4-.3.6-.4-.1,3.4-.5.3-.6Z"/>
  <path class="st2" d="M154,50.3h1.1-1.1Z"/>
  <path class="st2" d="M206.5,233.6h.4-.4Z"/>
  <path class="st2" d="M355.5,169.2c.1,0,.3-.2.4-.4,0,0-.1,0-.4.4Z"/>
  <path class="st2" d="M361.4,130.1l.2,1c0-.4-.1-.7-.2-1Z"/>
  <path class="st2" d="M341.2,185c-.4.4-.6.4-1.2.9,0,0,.1,0,.2-.1.2-.2.5-.4,1-.8h0Z"/>
  <path class="st2" d="M322.9,197.8c.1,0,.3-.1.4-.2.2-.1.4-.3.6-.4-.3.2-.6.4-1,.5h0Z"/>
  <path class="st2" d="M59.1,79.6c.5-.2.8-.2,1-.2-.4,0,2.5-1.6-1,.2Z"/>
  <path class="st2" d="M153.3,50.5h.7-.8.1Z"/>
  <path class="st2" d="M342,187.3l-2.9,2.2c.8-.6,1.8-1.4,2.9-2.2Z"/>
  <path class="st2" d="M59.5,201.2l-.8-.3c.3.1.5.3.8.3Z"/>
  <path class="st2" d="M330.4,195.8c-.6.3-1.2.6-1.8,1-.1,0-.3.2-.3.3.7-.4,1.4-.8,2.1-1.2h0Z"/>
  <path class="st2" d="M60.2,79.4h0Z"/>
  <path class="st1" d="M81.4,68.9c-3.2,1.3-1.3,1-1.9,1.4-3.7,1.7-1.8.5-3.2.9-2.3,1.1-3.9,2.2-5.7,3-.2,0-.5,0,0,0-2.3,1.4-7.2,3.4-9.9,5.1h-.4c.5,0,.7,0,.7.2-1.4.7-2.4,1.5-3.1,1.5.8-.4.9-.5,1.2-.8l-1.4.8c-1.4.4,1.9-1.1,1.8-1.3-2.7,1.5-5.8,3.5-8,4.6-.6,0,4.9-2.8,1.9-1.5,1.1-.5,2.2-1.1,3.3-1.6-2.8.8,2-1-.6-.3-4.4,2.2-4.8,2.7-9,5.2-.8.7.5,0-.4.8-2.9,2-4.1,2.6-5.2,3.1-1.1.5-1.9.9-3.9,2.6-.9,1-1.1,1.6-4,3.8.2-.4.5-.7.7-1.1-3.7,3.1-1.8,2.1-5.5,5.4.5-.8,2.6-2.7,2.1-2.2-2.6,2-1.5,1.7-3.3,3.5h-.6c-3.5,3.9-6.7,8.5-9.4,13.5,0-.3.5-1.2-.3,0-1.7,3.2-3.3,6.6-4.5,10.2-1.2,3.6-2.1,7.3-2.4,10.8,0,.9,0,1.8.2,2.7,0,.6-.1,1.1-.2.5-.1,2.7.2.1.3,1.4,0,1.5,0,2-.2,1.1.2,2.4.8,5.7,1.7,9s2.1,6.5,3,8.8l-.5-.9c1.5,3.6,2.4,3.7,3.9,6.9l-.4-.6c2.1,3.7,4.7,7.2,7.4,10.4s5.5,5.9,7.7,8.3c.6.2,2.1,1.7,3.6,2.9,1.5,1.3,3,2.4,3.4,2.4,1.8,1.5,2.5,2.1,3.3,2.8.9.7,1.9,1.5,4.7,3.4,1.5,1,2.5,1.1,4.4,2.1v.3c.8.4,1.7.8,2.7,1.2l1.2,1.1c.6.3,1.3.6,1.9.9-.7-.4-1.5-.9-1.4-.9,1.5.7,3.2,1.6,4.6,2.4,1.4.8,2.4,1.4,2.4,1.5,2.4,1,4.8,1.9,7.1,2.8-.2,0-1.4-.4-2.4-.7,3.9,1.3.6.6,4.1,1.7-.4-.3.3,0,.4,0,1.7.9,5.7,2.4,8.7,3.3h-.6c5.4,1.9,11.4,3.7,17.5,5.4-2.2-.7-1.6-.9.2-.5l.6.5c1.2.1-1.8-.7.6-.2,2.3.7,1.4.8,0,.5l2.8.7c0,.1-.5,0-.7,0,1.2.1,4.7,1.6,6.5,1.7,6.2,1.7,9,2.3,14,3.5.2-.2,2.1.3,3.7.4,3.7,1,7.7,2.2,12.2,3.2,3.2.6,1,0,2.4.2.2.3,4.6,1.3,2.3,1,5.4,1.2,6.9,1.5,13.7,2.7-.7-.3-1.5-.5-1.1-.5,1.2.2,2.8.7,2.6.8h-.3c7.7,1.2,17.7,3.8,24,3.9h-.4c2.2.1,4.3.3,6.5.3,3,.3-1.8,0,.4.4,7,0,11,.6,16.8.2.6,0,1.2.1,2,.2h2.5c.9,0,1.8,0,2.8-.1,1,0,2-.2,3-.3,4.1-.5,8.4-1.2,11.4-1.5h-.4c1.5-.6,1.9-.4,3-.5-.2-.1-1.7.1-.8-.1,12.9-2.6,26.4-6.2,39.3-10.1,4.7-1.5,2.4-1.7,8.4-3.3l-1.6.9c9.3-3.5,19.2-6.6,28-10.8-.5.3-.5.4-1.4.8,2-.5,7-3.1,6.9-3.3,1.4-.6.4,0,1.3-.3,1.9-.8,4.5-2.5,5.6-2.9.2,0-.5.3-.8.5.6-.4,2-1.1,3.1-1.7,1.1-.6,1.9-1.1,1.2-.9,1.6-.8,3.2-1.7,4.6-2.6,1.4-.9,2.7-1.7,4-2.4,1.4-1.3,5.3-3.3,5.6-4.1,0,.3,1.4-.6,3-1.7,1.6-1.1,3.3-2.6,4.1-3.4-.5.6,1.7-1.2,1.1-.4,2-1.8,3.8-3.4,3.3-3.3,4-2.9,6.7-7.2,8.9-8.9,4.9-6.3,8.2-13.2,9.4-20.2.2.2-.2,2.1-.7,4-.5,1.8-1.2,3.6-1,3.5,1.2-3.2,1.7-5.9,2.1-8.6.4-2.7.6-5.3.6-8.7s.2,1,.2,1.6c0-6.8-.7-13.1-2.5-18.8,0,0,.3.6.5,1.2-.3-1.1-.7-2.7-.8-2.5l.4,1.1c0,1-.3,0-.9-1.5-.6-1.3-1.2-2.9-1.3-3,1.3,1.7-2-5.6-.1-2.9-.3-.7-.8-1.6-.8-1.4-.4-1.1-.5-1.4.1-.4-1.8-3.8-1.4-2.4-3.1-5.8.1,0,.5.6.8.9-.5-.8-1.1-1.6-1.7-2.6-.3-.5-.6-1-1-1.6-.4-.6-.8-1.2-1.2-1.9.2,0,0-.2.5.6-.4-.6-.8-1.1-1.1-1.7-.4-.5-.8-1-1.2-1.5-.4-.5-.7-1-1.1-1.4l-1.2-1.4c-.8-.9-1.6-1.8-2.5-2.8s-1.8-2-2.9-3.1c.8.5.4,0,0-.5-.5-.6-1.3-1.3-1.3-1.5-.8-.7-1.6-1.5-2.5-2.1.3.3.6.6.9,1-1.1-.9-2.2-1.8-3.2-2.5-1.1-.7-2.1-1.5-3.1-2.2.6.3,1.2.8,1.8,1.1-1.4-1.1-2.9-2.1-4.5-3,.8.6,1.7,1.2,2.5,1.8-2.5-1.5,0,.5-3.1-1.6.7.4-2.4-1.5-3.6-2.4-1.3-.6-2.6-1.1-4.5-2.1-.4-.3.6-.2.3-.4-1.4-.4-6.1-2.7-7.9-3,.6,0,.7,0,.5,0l-1.2-.2c-1.2-.6-1.4-.7-1.1-.7-3.7-1.5,1,.9-3.3-1,.4,0,.2,0,.9.2-4.4-1.7-8.7-2.9-12.8-4.3-1.1-.7,3.6,1.1,2.3.3-3-.9-6.1-1.8-9.2-2.7-3.1-.8-6.2-1.6-9.1-2.5l1.1.4c-.5,0-1.5-.3-2.9-.7-1.3-.5-2.9-1-4.4-1.3.7.2,1,0,.8,0-2-.6-4-1.1-6.4-1.6-2.3-.5-4.9-1-8-1.7h.8c-1.2-.3-2.7-.7-4.3-1.1-1.6-.4-3.2-.7-4.5-1-.8,0-2.3-.4-1.4,0-3.9-1.3-7.7-1.9-11.4-2.4-3.7-.6-7.3-1-10.8-1.9.9,0,2,.2,1.4,0-2-.3-4.1-.6-6.1-.9.4.3.8.3,2,.6-.8,0-2.5,0-4-.3,2.8.2,0-.4-1.1-.7.2,0-.2,0-.1.2-3.1-.8-.6.4-4.9-.5h.2c-1.6-.3-3.1-.3-4.9-.5-.7-.3,1.7,0,1.9,0-2.5-.3-4.9,0-7.1-.6,1.1,0,2.6.2,3.6.3-2.4-.6-2.7-.5-4.5-.8h.2c-1.4-.2-2.8-.4-4.2-.6l1.1.2c-3.2.4-6.3-.4-10.5-.4,4.1,0,.7-.2,1-.5-1.1-.2-2.7-.4-2.2-.4-2,0-3.3-.4-6.1-.2-.1,0-2.1,0-1.7-.4-2.6,0,.6.2.4.3-2,0-4.3-.2-6.9-.4-2.5-.2-5.3-.4-8.2-.2-4.9,0-5.8.4-10.4.5-.8,0-.5-.2,0-.2h1.2c-2.5-.2-4.4,0-6.7,0,.5,0,0-.2-.7-.3-1.9,0-1.3.4-3.7.2.4,0,1-.3,1.9-.4-2.2,0-4.4.4-6.7.5-.6-.2,1.4-.3,2.2-.4-2.6.2-6.7.4-7.5.7h1.7c-.9,0-.5-.2.2-.2,2.2-.3,3.2,0,3.3,0h-1.6c1.7.6,6.5-.2,9.8-.2l-1.4.4,3.4-.4c.7,0,1.2.3-.4.4,2.4.2,2.1-.2,4.1,0,.2,0,.1,0,0,0h2.3c-.5,0,.4.3-1,.2,4.1.3,6.7-.2,8.2,0h-.3c5.7,0,.6-.3,4.9-.5l2.9.9.6-.3c.6,0,1.8,0,1.5.2,2.2,0-.4,0,.9-.3,2.8.4,7.8.3,8.4.8,1-.2-2.7-.4.3-.3.8.6,3.5,0,6.1.5-.8.2-3.3,0-.7.3,1.6-.3,5,.5,7.2.6.1-.3,4.8.2,8.4.6-.1,0,1.6.3,3.8.6,1.1,0,2.3.3,3.4.5,1.1.2,2.2.4,3,.5h-.1c.7-.2,4.2.3,6.7.6-.1.2-.6.2-2,0l2.4.3c.6,0,1.3,0,2.9.2l-.6.2c3.2.5,6.4.7,10.5,1.6.3-.2-3.1-1.3,1.2-.7.1.2.3.4-.9.3.4,0,1.3,0,2.1.3h-1.8c1.8.4,1,0,2.5.2,0,.2,1.1.3.8.5-.4,0-1.3-.3-1.9-.4,1.7.3,3.7.8,4.3,1.1-.1,0,0-.3,1.3,0,3.2.6,1,.4,2.9.9.8,0,2.8.6,2.9.3.9.2,1.1.4,1.4.5,1.7.2,7.6,1.6,5.8.9h-.4.3c5.4,1,11,2.7,16.2,4,1.6.5,3.3.9,4.9,1.3s3.1.8,4.3,1c.9.3,2.1.8,1.7.8,2.4.6,2.7.6,6.1,1.8-2.4-.6.8.4-2.5-.6,3.1,1,3.7,1.4,7,2.2-1.2,0,2.2,1,3.7,1.4l-2.1-.9c1.6.5,3.1.9,4.5,1.5h-.9c6.1,2.5,11.4,3.3,15.7,5.9,1.7.5-3.2-1.5-1.7-1.2,2.8,1.2,5.4,2.9,6.2,3.4,1.8,1,2.7,1.3,3.6,1.7.9.4,1.9.7,3.7,1.9-.4-.4-.7-1,2.1.7,2.5,1.7,2.8,2.5,1.2,1.5-.6-.4-.9-.6-.8-.6-.8-.5-1.9-1.1-1-.4h.4c.6.5,1.7,1.4,2.6,2,.9.7,1.5,1.2,1,1,1.9,1.3.9.4-.4-.6.7.6,1.4,1.1,2,1.6s1.2,1,1.8,1.5c1.2.9,2.3,2,3.7,3.4-.4-.5-.7-1-.3-.5,3.9,4.2,2,1.6,4.6,4.5,1.3,1.8-.8-.4,1.8,2.6,1.4,2,0,.6-.6,0,1.2,1.3,2.1,2.7,2.9,4s1.3,2.4,1.9,3.3l-1.1-1.5c.6.9,1.2,1.7,1.6,2.5l-.3-1.1c.5,1,1,1.8.9,1.8.7.9,0-1,1.2.9.6,1.4,2.2,4,2,4.6-.4-1.1-.7-1.6-.8-1.8-.1-.2-.1,0-.1,0,0,.2,0,.6-.9-1.2.4.7.8,1.5,1.2,2.5,0,.2-.1,0-.3-.4,1.5,4.2,1.2,1.7,2.9,6-.4-.5,0,1.1.3,1.8-.6-1.8,0-.9.7.6.4,1.4.6,2.2.8,2.8.2.6.4,1,.6,1.8-.1-.6-.3-1.2-.4-1.7.2.3.3.8.5,1.4.2.7.4,1.6.6,2.6,0,.2-.5-1.8-.4-1.1.4,1.1.6,2.4.7,3.8.1,1.4.3,2.9.5,4.5,0,1.5-.3.2-.3,1.5.2,1.8.2,2.7.1,3.7,0,1-.2,2-.2,3.8.3-1.1.3-1.3.3,1.4.2-2,.2-4.1,0-6.2.1,1.3.2,2.6.3,4,.1-1.9,0-3.9,0-5.1.2,1.9.2,1.7.4.8-.3,2.6.2,5.1-.5,8l-.6-.2c-.4,2.2-.8,4.1-1.3,6.1s-1.2,4.2-2.5,6.8c.3-.5.6-1.1.9-1.6,0,.8-1.5,3.2-2.4,4.8,0-.2-.8.7-1.3,1.3,0,0-.5.9-1.1,1.8-.6.9-1.3,1.9-1.3,2.2-.6.6-1.2,1.2-1.8,1.8-1.6,1.7-2.4,2.8-3.2,3.8-.8,1-1.6,2.1-3.3,3.6.8-1.1-.7.2,1.3-2-1.1,1-2.1,1.9-2,2-.8.5-2.9,3-4.1,3.7-.4.5-.5.8-1.8,1.8-.2,0,0,0,0,0,0,0-2,1.8-.7,1-1,.6-2.2,1.3-3.4,2.2-.6.4-1.2.9-1.9,1.3-.7.4-1.3.9-2,1.3-2.6,1.8-5.3,3.4-7.1,4.2-1.4.8-3,1.8-4.5,2.6-1.6.9-3.1,1.7-4.4,2.4.1-.1,0,0,.5-.3-3.8,1.7-2,1.6-6.3,3.5-1.2.3-.6,0,0-.3.7-.3,1.4-.7.7-.4-.4-.1-1.7.5-3.3,1.2-1.5.8-3.4,1.7-4.9,2.1l.7-.3c-2.3.8-5.3,2.5-9,3.9,0,0,.2-.1,0,0-2.4,1.3-7.2,3.1-10.7,4.5,1-.6,1.6-.7.8-.7-1.6.6.6.2-2.6,1.4-1.1.2-3.5.9-3.9.7l3-1c-1.7.2-3.9,1.3-5.6,1.8l.2-.2c-4.7,1.6-4.6,2-9.7,3.5h.6c-2.6,1.2-2.4.5-5,1.6h-.9c-1.8.5-6.3,2.2-9.6,3.1,1.8-.8,5.6-2.1,7.9-2.9-1.8.5-6.1,1.8-7,2.3.7-.2,1.6-.6,2.4-.7-2.1.9-5,1.9-8.7,2.9.2-.5-2.2.1-5,.7-2.8.6-6,1.3-7.4,1.3-6.5,1.5-13,2.2-20.7,2.6,2.8.4-2.2.2-1.7.7-1.8.1-2.5.1-2.6,0-1.8,0-3.6-.1-5.5-.3-1.3-.2,1.7-.1,1.5-.3-3.9,0-1.6-.3-4.2-.5.3.1,0,.2-.8.2s-1.7,0-2.8-.1c1,.1,2.1.3,3.1.4-5.5,0-4.7-.7-10.3-.8h1.8c-2.9,0-10.4-1.1-13.3-1-.5-.1-1.1-.4.1-.3-6.7-1-15.1-1.9-20.2-3.3h.5c-1.3-.3-2.2-.2-3.8-.7,0,0,.5,0,0-.2-.7,0-3.4-.5-5-.9l1.4.2c-6.5-1.7-10.1-1.9-15.5-3.1.1-.4-5-1.8-7.5-2.5-7.5-1.9-12.9-2.8-19.9-4.5-4.2-1.6-14.5-4.2-21.2-6.8,1,.4-.3.3-1.5-.1-1.6-.6-4.5-1.3-4.1-1.6l.6.2c-1.1-.8-4.3-1.9-6.8-2.9l-.6.3c-3.1-1.7-7.4-3.4-11.2-5.2s-7.2-3.6-8.7-4.8c-1.5-.7-3.3-1.8-4.8-2.6l.2-.2c-1.9-1.3-3.4-2.3-4.9-3.4-.8-.5-1.6-1.1-2.4-1.8-.4-.3-.9-.7-1.4-1.1-.5-.4-1-.8-1.6-1.3l1,.6c-1.3-1-2.2-1.5-3.1-2-.9-.5-1.8-1-2.9-2l-.4-.9c-1-1-2-2-3-3.1-.9-1.1-1.9-2.1-2.8-3.2-1.8-2.2-3.5-4.4-5.2-6.7.1,0,.3.1.8.9-.8-1.1-2.1-3.3-3.1-5.1s-1.8-3.3-1.8-2.8c.1-.1-.5-1.4-1.2-3.1-.8-1.7-1.6-3.7-2.1-5.1l.4.4c-1-2.4-1.2-2.4-2-6-.1-.9.1-.8.2.4-.2-1.4-.3-2-.4-2.6-.2-.6-.3-1.3-.3-3l.3,1.3c-.1-1.5,0-2.1-.1-2.6,0-.5-.1-.9-.2-1.7,0-1.9.6-5.6,1-5.9,0-.4,0-2,.5-3.7.2-.2,0,.4,0,.7.3-1.2.6-2.2.9-3.1.3-.9.5-1.8.8-2.5.5-1.6,1-2.9,1.9-4.4.1,0,.3-.2.4-.4-.9,1.7-1.6,3.4-2,4.5-.5,1.1-.7,1.8-.7,1.7.2,0,1.4-2.8.8-.4.6-2.4,2-6.5,3.7-9.1,0,0,.2-.2.3-.3v.3c.2-.6.5-1.2.8-1.7.6-.8.9-1.3,1.4-2.1.2,0,.7-.8,1.3-1.7.6-.8,1.4-1.8,1.8-2.4-.3,0,1.1-1.6-.4-.3.2-.2-.2.3-.8,1.1-.1.2-.3.4-.4.5-.6.8-1.4,1.9-2.3,3.2.6-1.1,1.2-2.3,2.4-3.5.3-.8.7-1.6,1-2,1.6-1.5,4.7-4.3,5.3-4.5,3.2-3.6,8.4-7.5,10.6-9.7,1.1-.9,1.4-.8,1.9-1-.6.5-1.4,1-1.7,1.3,2.1-1.7,6.7-4.5,7.1-5.2,3.1-1.6-1.5,1.3,2.6-1.2l-.5.4c4.2-2.1,7.4-4.1,10.9-6,3.4-2,7-3.9,11.9-5.7-.7.3-1,.4-1.2.4,10.9-4.7,22.4-10,33.7-13,3.2-.8,3.5-1.2,5.4-1.9h.8l3.3-1.1c4.8-1.4,8.5-1.2,14.5-2.5h-.8c1.1-.2,2.9-.5,4.3-.7,1.4,0,2.6-.2,2.4,0,.2,0,.7-.3,1.6-.3v.2c1.9-.2,3.7-.4,5.6-.6,4.3,0-.6.6,5.5.6s6.6,0,5.7-.3c-.9,0-2.4-.2-2.4-.4h2.1c.4-.4,2.1-.8-3.1-1.4h-1.8l-1.8.2-1.2-.2h3.1c-1.7-.2-2.9,0-4.1,0s-.8-.2-1.5-.3l-3.6.6c-.4-.2,1.6-.4-.8-.4-1.7.3,1.6.3-1.1.6-1.8,0-1.3-.3-3.3,0-.3,0,.1-.2.9-.3-.9.2-2.1.3-3.2.4-1.1.2-2.1.4-2.5.5-.9,0-2.5.2-3.7.4-1.3.2-2.3.4-2.3.2-.6.2-3.1.9-4.7,1.3,1.4-.6,0-.3-1.9,0-1.8.4-3.9.9-3.6.5-1,.5-3,1-5.2,1.7-1.1.3-2.2.7-3.3,1-1.1.4-2.1.8-3.1,1.1.2,0,.6-.3.9-.4-2.2.7-2.8.7-4.2,1.1,0,.5-3.4,1.7-5.1,2.6-2.7.6,1.4-1,.5-1.1.2.2-4.4,2-3.4,1.9-2.1.5-1.7.6-2.9.7-.2.6-1.8.8-3.3,1.8-2.9,1-.9,0-3.9,1.3-1.5.5,1.2-.8,1.2-.8l.8.4h0ZM17.7,115.3h0c.3-.6.6-1.1.8-1.5-.2.3-.4.7-.8,1.5ZM14.8,121.4c.3-.8.8-1.7,1.2-2.7.2-.2.2,0-.1.7,0-.4-.6,1.1-1.1,2ZM23.4,110.1c-.6.9-.8,1.1-.9,1.2.3-.4.6-.9,1-1.5h0v.3h-.1Z"/>
  <path class="st2" d="M24.2,108.4s.1-.2.2-.4c-.1.2-.3.3-.4.5,0,0-.1.2-.2.3.1-.2.2-.3.3-.4h.1Z"/>
  <path class="st2" d="M259.5,62.8h.1-.3.2,0Z"/>
  <polygon class="st2" points="52.8 197.8 52.8 197.7 52.3 197.5 52.8 197.8"/>
  <path class="st2" d="M223.5,55.2h-.5.5Z"/>
  <path class="st2" d="M207.7,53.1l-2.2-.4c1,.2,1.7.3,2.2.4Z"/>
  <path class="st2" d="M195.5,51.8h-.2.2Z"/>
  <path class="st2" d="M363.1,128.8c0,.2,0,.3.1.5.3,1.1.1.3-.1-.5Z"/>
  <path class="st2" d="M327.7,84.2c.6.3,1.1.5,1.7.8-.9-.5-1.6-.9-1.7-.8Z"/>
  <path class="st2" d="M342.3,187.1h0c-.1,0-.2.2-.3.3l.3-.2h0Z"/>
  <path class="st2" d="M331.8,86.5c-.8-.6-1.6-1-2.3-1.4.7.5,1.6,1,2.3,1.4Z"/>
  <path class="st2" d="M142.4,50.6h-.6.7,0Z"/>
  <path class="st2" d="M141.7,50.6h-.7.7Z"/>
  <path class="st2" d="M139.7,50.8h1.4-1.4Z"/>
  <path class="st2" d="M158.6,50.4h.2-.2Z"/>
  <path class="st2" d="M163.5,50.4c-1.2,0-2.9-.3-4.6-.2h-.2c.8,0,3.6.3,4.7.2h.1Z"/>
  <path class="st2" d="M184,52.3c-1.4,0-2.7-.2-4.1-.3.7,0,1.7.3-.2.3,5.2.5-1.1-.3,4.3,0Z"/>
  <path class="st2" d="M196.8,53.4c-2.2,0,0,.2-.1.2,1.4,0,1.7,0,.1-.2Z"/>
  <path class="st2" d="M287.4,70.2l-.3.2c1.6.4,0,0,.3-.2Z"/>
  <path class="st2" d="M304.6,74.3l-1.5-.7h-.8c.8.2,1.6.4,2.4.7h-.1Z"/>
  <path class="st2" d="M313.8,79.5l-.7-.2,2.7,1c-.6-.2-1.3-.5-2-.7h0Z"/>
  <path class="st2" d="M326.2,195.5h.6c1-.6,1-1.1-.6,0Z"/>
  <path class="st2" d="M264.9,221.5c-.7,0-2.6.5-3.6,1,1.4-.4,2.9-.8,3.6-1Z"/>
  <polygon class="st2" points="69.9 203.4 71.1 203.8 68.8 202.9 69.9 203.4"/>
  <path class="st0" d="M98.8,67.3c26.9-7.6,40.4-11.4,52.9-13,33.2-4.3,58.2.1,90.6,5.8,40.9,7.2,63.3,16.4,75.8,22.4,19.9,9.4,30.8,18,37.7,30,6.2,10.8,7.4,21.4,7.6,26,.3,4.9.8,16.8-5.7,29.1-4.8,8.9-11.5,14.8-22.9,22.4-27.3,18.2-52.6,27-58.7,29.1-18,6.1-38,12.9-65.3,13.9-14,.5-26.5-1.3-51.5-4.9-19.4-2.8-38.3-5.6-62-13-17.7-5.5-28.9-9.1-42-17.9-6.7-4.5-19.3-13.2-29.1-29.1-5.1-8.3-12.4-20.2-11.4-35.8,1.2-20,15.2-33.4,20-38.1,6.2-6,16.2-13.4,63.9-26.9Z"/>
</svg>