<?xml version="1.0" encoding="UTF-8"?>
<svg id="Layer_1" xmlns="http://www.w3.org/2000/svg" version="1.1" viewBox="0 0 400 169">
  <!-- Generator: Adobe Illustrator 29.2.1, SVG Export Plug-In . SVG Version: 2.1.0 Build 116)  -->
  <defs>
    <style>
      .st0 {
        fill: blue;
      }

      .st1, .st2, .st3 {
        isolation: isolate;
      }

      .st2 {
        fill: #0b00f8;
      }

      .st2, .st3 {
        font-family: Arial-BoldMT, Arial;
        font-size: 24.5px;
        font-weight: 700;
        letter-spacing: .4em;
      }

      .st4 {
        fill: #2020ff;
      }

      .st3 {
        fill: none;
        stroke: #0000b0;
        stroke-miterlimit: 10;
      }
    </style>
  </defs>
  <path class="st4" d="M356.3,83.3h0c-.3-.5-.1-.2,0,0Z"/>
  <path class="st4" d="M206.7,199.2c2.5.2-4.1.4-.3.6-.4-.1,3.4-.5.3-.6Z"/>
  <path class="st4" d="M206.5,199.8h.4-.4Z"/>
  <path class="st4" d="M355.5,135.4c.1,0,.3-.2.4-.4,0,0-.1,0-.4.4Z"/>
  <path class="st4" d="M361.4,96.3l.2,1c0-.4-.1-.7-.2-1Z"/>
  <path class="st4" d="M341.2,151.2c-.4.4-.6.4-1.2.9,0,0,.1,0,.2-.1.2-.2.5-.4,1-.8h0Z"/>
  <path class="st4" d="M322.9,164c.1,0,.3-.1.4-.2.2-.1.4-.3.6-.4-.3.2-.6.4-1,.5h0Z"/>
  <path class="st4" d="M59.1,45.8c.5-.2.8-.2,1-.2-.4,0,2.5-1.6-1,.2Z"/>
  <path class="st4" d="M342,153.5l-2.9,2.2c.8-.6,1.8-1.4,2.9-2.2Z"/>
  <path class="st4" d="M59.5,167.4l-.8-.3c.3.1.5.3.8.3Z"/>
  <path class="st4" d="M330.4,162c-.6.3-1.2.6-1.8,1-.1,0-.3.2-.3.3.7-.4,1.4-.8,2.1-1.2h0Z"/>
  <path class="st4" d="M60.2,45.6h0Z"/>
  <path class="st4" d="M24.2,74.6s.1-.2.2-.4c-.1.2-.3.3-.4.5,0,0-.1.2-.2.3.1-.2.2-.3.3-.4h.1Z"/>
  <polygon class="st4" points="52.8 164 52.8 163.9 52.3 163.7 52.8 164"/>
  <path class="st4" d="M363.1,95c0,.2,0,.3.1.5.3,1.1.1.3-.1-.5Z"/>
  <path class="st4" d="M342.3,153.3h0c-.1,0-.2.2-.3.3l.3-.2h0Z"/>
  <path class="st4" d="M326.2,161.7h.6c1-.6,1-1.1-.6,0Z"/>
  <path class="st4" d="M264.9,187.7c-.7,0-2.6.5-3.6,1,1.4-.4,2.9-.8,3.6-1Z"/>
  <polygon class="st4" points="69.9 169.6 71.1 170 68.8 169.1 69.9 169.6"/>
  <g id="Text" class="st1">
    <g class="st1">
      <text class="st3" transform="translate(37.4 96.1) scale(1.3 1)"><tspan x="0" y="0" xml:space="preserve">FASHION  US</tspan></text>
      <text/>
    </g>
  </g>
  <g id="Frame">
    <polygon class="st0" points="162.5 31 162.5 32.3 388.8 32.3 388.8 138.4 292.7 138.4 292.7 139.7 391.9 139.7 391.9 31 162.5 31"/>
    <polygon class="st0" points="15.1 32.3 109.8 32.3 109.8 31 12 31 12 139.7 258.6 139.7 258.6 138.4 15.1 138.4 15.1 32.3"/>
  </g>
  <g class="st1">
    <g class="st1">
      <text class="st2" transform="translate(307.9 96.1) rotate(-180) scale(1.3 -1)"><tspan x="0" y="0">R</tspan></text>
    </g>
    <g class="st1">
      <text class="st3" transform="translate(307.9 96.1) rotate(-180) scale(1.3 -1)"><tspan x="0" y="0">R</tspan></text>
    </g>
  </g>
</svg>